/* XPM */
static char *f9c5393f035a4b5fe48fde97de89ad81tx6xG1VyMLnaDkuC[] = {
/* columns rows colors chars-per-pixel */
"64 64 7 1 ",
"  c None",
". c black",
"X c #600909",
"o c #747067",
"O c #9C1010",
"+ c #A79F88",
"@ c #DFDFDF",
/* pixels */
"                  ..........                ......              ",
"                  ..........                ......              ",
"            ......OOXXXXXXXX....        ....XXXX......          ",
"            ......OOXXXXXXXX....        ....XXXX......          ",
"          ....XXXXXXXXOOOOXXXX..........XXXXXXXXXXXX....        ",
"          ....XXXXXXXXOOOOXXXX..........XXXXXXXXXXXX....        ",
"          ..XXXXXXXXOOOOOOXXOOXXOOOOOOOOOOOOXXXXXXXXXX....      ",
"          ..XXXXXXXXOOOOOOXXOOXXOOOOOOOOOOOOXXXXXXXXXX....      ",
"          ..XXXXXXXXOOOOOOOOOOOOOOOOOOOOOOOOXXXXXXXXXXXX....    ",
"          ..XXXXXXXXOOOOOOOOOOOOOOOOOOOOOOOOXXXXXXXXXXXX....    ",
"        ....XXXXXXOOOOOOOOOOOOOOOOOO....OOOOXXXXXXXXXXXXXX..    ",
"        ....XXXXXXOOOOOOOOOOOOOOOOOO....OOOOXXXXXXXXXXXXXX..    ",
"      ..XXXXXXXXOOOOOOOOOOOOXXOOOO..XX..OOOOXXXXXXXXXXXXXX..    ",
"      ..XXXXXXXXOOOOOOOOOOOOXXOOOO..XX..OOOOXXXXXXXXXXXXXX..    ",
"    ....XXXXXXOOOOOOXXXXXXOOOOOO..ooXX..OOOOOOXXXXOOXXOO....    ",
"    ....XXXXXXOOOOOOXXXXXXOOOOOO..ooXX..OOOOOOXXXXOOXXOO....    ",
"    ..XXXXXXXXOOOOXXXXOOOOOOOOOO......oo..OOOOOOOOOOOOOO..      ",
"    ..XXXXXXXXOOOOXXXXOOOOOOOOOO......oo..OOOOOOOOOOOOOO..      ",
"    ..XXXXXXOOOOXXXXOOOOOOOOOOOOOOOOOO..oo..OOOOOOOOOO....      ",
"    ..XXXXXXOOOOXXXXOOOOOOOOOOOOOOOOOO..oo..OOOOOOOOOO....      ",
"  ....XXOOXXOOOOOOOOOOOOOOOOOOOOXXOOOOOO..oo......OOOO..        ",
"  ....XXOOXXOOOOOOOOOOOOOOOOOOOOXXOOOOOO..oo......OOOO..        ",
"  ..XXXXOOXXOOOOOOOOOOOOOOOOOOXXXXXXOOOOOO..oooo..OOOOXX..      ",
"  ..XXXXOOXXOOOOOOOOOOOOOOOOOOXXXXXXOOOOOO..oooo..OOOOXX..      ",
"    ..XXOOOOOOOOOO..........OOOOOOXXXXOOOO..XX..OOOOOOOO..      ",
"    ..XXOOOOOOOOOO..........OOOOOOXXXXOOOO..XX..OOOOOOOO..      ",
"    ....OOOO......++XX++++XX......OOOOOOOO....OOOOOOOOOO..      ",
"    ....OOOO......++XX++++XX......OOOOOOOO....OOOOOOOOOO..      ",
"      ..OOOO..XX++XXXXXXXX@@++++..OOOOOOOOOOOOOOOOOOOOXX....    ",
"      ..OOOO..XX++XXXXXXXX@@++++..OOOOOOOOOOOOOOOOOOOOXX....    ",
"    ....OO..++ooXXXX@@XX@@++++oo++..OOOOOOOOOOOOXXOOOOXXXX..    ",
"    ....OO..++ooXXXX@@XX@@++++oo++..OOOOOOOOOOOOXXOOOOXXXX..    ",
"    ..XXOO..++XXXXXXoo@@oo@@@@oo++..OOOOOOOOOOOOXXOOOOXXXX..    ",
"    ..XXOO..++XXXXXXoo@@oo@@@@oo++..OOOOOOOOOOOOXXOOOOXXXX..    ",
"    ..OOOO..++XX....XXooXX....oo++..OOOOOOOOOOOOXXOOXXXXXX..    ",
"    ..OOOO..++XX....XXooXX....oo++..OOOOOOOOOOOOXXOOXXXXXX..    ",
"    ..XXOOOO..@@....@@..@@....XX..OOOOOOOOOOOOXXXXOOXXXXXX..    ",
"    ..XXOOOO..@@....@@..@@....XX..OOOOOOOOOOOOXXXXOOXXXXXX..    ",
"    ..XXOOOO..XX..@@......@@..@@..OOOOOOOOOOOOOOOOXXXXXXXX..    ",
"    ..XXOOOO..XX..@@......@@..@@..OOOOOOOOOOOOOOOOXXXXXXXX..    ",
"    ..XXOOOO..@@XX@@..@@..@@@@@@..OOOOXXXXOOOOOOXXXXXXXXXX..    ",
"    ..XXOOOO..@@XX@@..@@..@@@@@@..OOOOXXXXOOOOOOXXXXXXXXXX..    ",
"  ....XXOOOOOO....XX@@XX@@XX......OOOOXXOOOOOOXXXXXXXXXXXX..    ",
"  ....XXOOOOOO....XX@@XX@@XX......OOOOXXOOOOOOXXXXXXXXXXXX..    ",
"  ..XXXXOOXXOOOO..++..++..++..OOOOOOOOXXOOXXXXXXXXXXXXXXXX..    ",
"  ..XXXXOOXXOOOO..++..++..++..OOOOOOOOXXOOXXXXXXXXXXXXXXXX..    ",
"  ..XXXXOOXXOOOO..++..++..XX..OOOOOOOOOOXX........XXXXXX....    ",
"  ..XXXXOOXXOOOO..++..++..XX..OOOOOOOOOOXX........XXXXXX....    ",
"  ..XXXXOOXXXXOOOO..........OOOOOOOOOOXX....    ....XXXX..      ",
"  ..XXXXOOXXXXOOOO..........OOOOOOOOOOXX....    ....XXXX..      ",
"  ....XXOOOOXXOOOOOOOOOOOOOOOOOOOOOOOO....        ........      ",
"  ....XXOOOOXXOOOOOOOOOOOOOOOOOOOOOOOO....        ........      ",
"    ....XXXXXXXXOOOOOOOOXXOOXXXXOOOOOO..            ....        ",
"    ....XXXXXXXXOOOOOOOOXXOOXXXXOOOOOO..            ....        ",
"      ..........XXXXXXOOXXXXOOOOOOOO....                        ",
"      ..........XXXXXXOOXXXXOOOOOOOO....                        ",
"              ..........XXXXXXOOOOXXXX..                        ",
"              ..........XXXXXXOOOOXXXX..                        ",
"                      ............XXXX..                        ",
"                      ............XXXX..                        ",
"                                  ......                        ",
"                                  ......                        ",
"                                                                ",
"                                                                "
};
