/* XPM */
static char *result[] = {
/* columns rows colors chars-per-pixel */
"64 64 7 1 ",
"  c black",
". c #600909",
"X c #747067",
"o c #9C1010",
"O c #A79F88",
"+ c #DFDFDF",
"@ c None",
/* pixels */
"@@@@@@@@@@@@@@@@@@          @@@@@@@@@@@@@@@@      @@@@@@@@@@@@@@",
"@@@@@@@@@@@@@@@@@@          @@@@@@@@@@@@@@@@      @@@@@@@@@@@@@@",
"@@@@@@@@@@@@      oo........    @@@@@@@@    ....      @@@@@@@@@@",
"@@@@@@@@@@@@      oo........    @@@@@@@@    ....      @@@@@@@@@@",
"@@@@@@@@@@    ........oooo....          ............    @@@@@@@@",
"@@@@@@@@@@    ........oooo....          ............    @@@@@@@@",
"@@@@@@@@@@  ........oooooo..oo..oooooooooooo..........    @@@@@@",
"@@@@@@@@@@  ........oooooo..oo..oooooooooooo..........    @@@@@@",
"@@@@@@@@@@  ........oooooooooooooooooooooooo............    @@@@",
"@@@@@@@@@@  ........oooooooooooooooooooooooo............    @@@@",
"@@@@@@@@    ......oooooooooooooooooo    oooo..............  @@@@",
"@@@@@@@@    ......oooooooooooooooooo    oooo..............  @@@@",
"@@@@@@  ........oooooooooooo..oooo  ..  oooo..............  @@@@",
"@@@@@@  ........oooooooooooo..oooo  ..  oooo..............  @@@@",
"@@@@    ......oooooo......oooooo  XX..  oooooo....oo..oo    @@@@",
"@@@@    ......oooooo......oooooo  XX..  oooooo....oo..oo    @@@@",
"@@@@  ........oooo....oooooooooo      XX  oooooooooooooo  @@@@@@",
"@@@@  ........oooo....oooooooooo      XX  oooooooooooooo  @@@@@@",
"@@@@  ......oooo....oooooooooooooooooo  XX  oooooooooo    @@@@@@",
"@@@@  ......oooo....oooooooooooooooooo  XX  oooooooooo    @@@@@@",
"@@    ..oo..oooooooooooooooooooo..oooooo  XX      oooo  @@@@@@@@",
"@@    ..oo..oooooooooooooooooooo..oooooo  XX      oooo  @@@@@@@@",
"@@  ....oo..oooooooooooooooooo......oooooo  XXXX  oooo..  @@@@@@",
"@@  ....oo..oooooooooooooooooo......oooooo  XXXX  oooo..  @@@@@@",
"@@@@  ..oooooooooo          oooooo....oooo  ..  oooooooo  @@@@@@",
"@@@@  ..oooooooooo          oooooo....oooo  ..  oooooooo  @@@@@@",
"@@@@    oooo      OO..OOOO..      oooooooo    oooooooooo  @@@@@@",
"@@@@    oooo      OO..OOOO..      oooooooo    oooooooooo  @@@@@@",
"@@@@@@  oooo  ..OO........++OOOO  oooooooooooooooooooo..    @@@@",
"@@@@@@  oooo  ..OO........++OOOO  oooooooooooooooooooo..    @@@@",
"@@@@    oo  OOXX....++..++OOOOXXOO  oooooooooooo..oooo....  @@@@",
"@@@@    oo  OOXX....++..++OOOOXXOO  oooooooooooo..oooo....  @@@@",
"@@@@  ..oo  OO......XX++XX++++XXOO  oooooooooooo..oooo....  @@@@",
"@@@@  ..oo  OO......XX++XX++++XXOO  oooooooooooo..oooo....  @@@@",
"@@@@  oooo  OO..    ..XX..    XXOO  oooooooooooo..oo......  @@@@",
"@@@@  oooo  OO..    ..XX..    XXOO  oooooooooooo..oo......  @@@@",
"@@@@  ..oooo  ++    ++  ++    ..  oooooooooooo....oo......  @@@@",
"@@@@  ..oooo  ++    ++  ++    ..  oooooooooooo....oo......  @@@@",
"@@@@  ..oooo  ..  ++      ++  ++  oooooooooooooooo........  @@@@",
"@@@@  ..oooo  ..  ++      ++  ++  oooooooooooooooo........  @@@@",
"@@@@  ..oooo  ++..++  ++  ++++++  oooo....oooooo..........  @@@@",
"@@@@  ..oooo  ++..++  ++  ++++++  oooo....oooooo..........  @@@@",
"@@    ..oooooo    ..++..++..      oooo..oooooo............  @@@@",
"@@    ..oooooo    ..++..++..      oooo..oooooo............  @@@@",
"@@  ....oo..oooo  OO  OO  OO  oooooooo..oo................  @@@@",
"@@  ....oo..oooo  OO  OO  OO  oooooooo..oo................  @@@@",
"@@  ....oo..oooo  OO  OO  ..  oooooooooo..        ......    @@@@",
"@@  ....oo..oooo  OO  OO  ..  oooooooooo..        ......    @@@@",
"@@  ....oo....oooo          oooooooooo..    @@@@    ....  @@@@@@",
"@@  ....oo....oooo          oooooooooo..    @@@@    ....  @@@@@@",
"@@    ..oooo..oooooooooooooooooooooooo    @@@@@@@@        @@@@@@",
"@@    ..oooo..oooooooooooooooooooooooo    @@@@@@@@        @@@@@@",
"@@@@    ........oooooooo..oo....oooooo  @@@@@@@@@@@@    @@@@@@@@",
"@@@@    ........oooooooo..oo....oooooo  @@@@@@@@@@@@    @@@@@@@@",
"@@@@@@          ......oo....oooooooo    @@@@@@@@@@@@@@@@@@@@@@@@",
"@@@@@@          ......oo....oooooooo    @@@@@@@@@@@@@@@@@@@@@@@@",
"@@@@@@@@@@@@@@          ......oooo....  @@@@@@@@@@@@@@@@@@@@@@@@",
"@@@@@@@@@@@@@@          ......oooo....  @@@@@@@@@@@@@@@@@@@@@@@@",
"@@@@@@@@@@@@@@@@@@@@@@            ....  @@@@@@@@@@@@@@@@@@@@@@@@",
"@@@@@@@@@@@@@@@@@@@@@@            ....  @@@@@@@@@@@@@@@@@@@@@@@@",
"@@@@@@@@@@@@@@@@@@@@@@@@@@@@@@@@@@      @@@@@@@@@@@@@@@@@@@@@@@@",
"@@@@@@@@@@@@@@@@@@@@@@@@@@@@@@@@@@      @@@@@@@@@@@@@@@@@@@@@@@@",
"@@@@@@@@@@@@@@@@@@@@@@@@@@@@@@@@@@@@@@@@@@@@@@@@@@@@@@@@@@@@@@@@",
"@@@@@@@@@@@@@@@@@@@@@@@@@@@@@@@@@@@@@@@@@@@@@@@@@@@@@@@@@@@@@@@@"
};
