/* XPM */
static char *result[] = {
/* columns rows colors chars-per-pixel */
"64 64 8 1 ",
"  c #1D241E",
". c #1E241E",
"X c #232B24",
"o c #262C25",
"O c #2E332B",
"+ c #2B332C",
"@ c #364630",
"# c #3A4D32",
/* pixels */
"                                                                ",
"  XXXXX             XXXXXXX    XX           XXXXX           XX  ",
" Xoooooo+  OooooooooooooooooO  Xoooooooooooooooooooo  o+ooooooXX",
" XoooooO@  O@oooooooooooooo@O  X+++oooooooooooooo++#  o+oooooo X",
"  oooooO@  O@O@@@@ooooOoo@O@O  X#++oooooooooooooo++#  o+@ooooo  ",
"  OOOOoOO  OOOOOOoOoooOOOOOoO   #++oooooooooooooo++#  o++++++o  ",
"  @@OOOOo     XX       XX       +++oooooooooooooo+#+            ",
"     XXXX    XX    XXXX  X      #++oooooooooooooo+#O            ",
"             X    oooooooooooo  #++oooooooooooo  +@O  oooooooo  ",
" Xoooooooooooooo  oooooooooo++ O+++oooooooooooooOO@OX o+oooooo  ",
" XooooooooooooooX oooooooooo+o O#++o+ooooooooooooOOOX o+oooooo  ",
" Xooooooooooooo+X +ooooooo+++o OO+++O@@@@@+++o+++OOOX ++oooooo  ",
" Xoooooooooooo++X +ooo+++++++o  oOOOOOOOOOOOOOOoooooX ++ooooooX ",
" Xoooooooooooo++X +ooo++o++                      XXX  ++oooooo  ",
" Xooooooooooooo+X +ooo+oo++   XXXXXXX                 +oooooooX ",
" Xooooooooooooo+  +ooo+oo@+   XXXXXXXX +ooooooooooo  ++ooooooo  ",
" Xooooooooooo+o+  @ooo+oo@+  oooooooo  +oooooooooo+  o+oooooooX ",
" Xooooooooo+++++  @@@+@@+@+  oooooo+o  Xoooooooooo+  ++oooooooXX",
"  ooooooooo+++++  ++++++++o  Xooooo++  Xooooooooo++  ++ooooooo  ",
"  ooooooooo+o+++            oXXooooo+  Xooooooooo++  +oooooooo  ",
"  ooooooooo++++o .          XXX+ooo++  X+oooooooo++  ++ooooooX  ",
"  ooooooooo++++@ .+oooooooooXXo+ooo++ X++ooooooo+++  ++ooooo+o  ",
"  ooooooooo++o+@oo++ooooooooX+++ooo++ X++ooooooo++@ X++ooooo+o  ",
"  ooooooooo++oooXXo+ooooooooo+ +ooo++ X+o+oooooo++@ X++ooooo+o  ",
" Xoooo@ooooo++@@Xoo+ooooooooo+ +ooo++ X+++ooooo++++ X++ooooo+oX ",
" Xoooo@ooooo++@@ .+oooooooooo+ +ooo++  @+o+ooo+o++@ X+@ooooo+oX ",
" Xoooo@o++oo++o@ .++oooooo++o  +ooo++  @+++oo++o@@@ Xo@ooooo++  ",
"  oooo@o+ooo++o+ .+ooooooo++o  ++++++  @@++++++++oo Xo@ooooo++  ",
"  @@@@@+++++++++  ++oooooo++                XXXXXX   @@@@@oo++  ",
"  ++++++++oooooo  o++++ooo++     XXXX                @@++++++oX ",
"             XXX.. ++++ooo+o X+o+oooooooooooooooo+   o++++++++X ",
"    XXX.            Xo+ooo++ X+o+oooooooooooooooo+            X ",
"  ooXo oo+o++++++oo Xo++oo@+ X+o+ooooooooooooooo++  XXXXXX      ",
"  ooooooo++++++++++ Xo++oo@o X+o+ooooooooooooooo++  ooooooooooX ",
"  oooooo++ooooo+oo+  o+ooo@@ X+++oooooooooooooo+++  +oooooooo+X ",
" Xoooooo++ooooo+oo+  o+oooo@ X++++oooooooooo++++++  +oooooooo+  ",
" Xoooooo++ooooo++o+  o+oooo@  @++++o++oooooo+o++@o  ++ooooooo+  ",
" Xooooo ++oooooo+o+  o+oo++@  @@@@@@o++++XXXXXXXXX  o+oooooo++X ",
" Xoooo  ++ooooo++++++o+++o++           XXXXXXXXXX   o++++++oo+X ",
"  oooo  +++++++o+++  ++oooo+   XXXX         XXX     oooo++++o+  ",
"  oooo  o+++++++++o  ++++++o  +oooooooo    XX             X+o+ X",
"                              +ooooooo+  ooooooooo         o++ X",
"   XXXXXX                     +oooooo++  +oooooooooooooo+       ",
"  oooooooo+X ++oooooooooo  o++oooooooo+  +ooooooooooo+oo+  ooo  ",
"  oooooooo+XX++oooooooo+o  o+ooooooooo+  +ooooooo+ooo+oo+  ooo  ",
" Xoooooooo+ X++ooooooo++o  o+ooooooo+++  +ooooooo++o++oo++ ooo  ",
" Xooooooo++ X++ooooooo++o  o+ooooooo++o  ++ooooo+o+o+o++++ ooo  ",
" Xooooooo++  ++ooooooo++o  o+ooooooo+o@  o+ooooo+oo++o++++ ooo  ",
"  oooooo++@  +++@+oooo++o  o+ooooooo++@  @+oo++++oo++o+o+++oooX ",
"  oooooo++o    ++@oooo++o  o+ooooooo++@  @++++oo+o+o+++++++oooX ",
"  +++++++@o    ++@oooo++o  o+ooooooo++@  @ooooooo++o++ooo  oooX ",
"  ++++@@@@o  o  ++oooo+++  o+o++++++++@  @ooooooo++        oooX ",
"             +  +@@@@o+++  o++o++++++++  @@+@@@@o++           X ",
"   XXXXXXX   +  ++++++++oX oXX@+@o+++++  o++++++++o  ooooo      ",
"  ooooooo  oo+      XX+  XX  XXXXXX                  ooooo##oo  ",
"  +o+++oo  +++      XX    XX              XXX      XX ooooo##o  ",
"  +++o+oo X+oooooooooooooo#X  oooooooooooooo  oooooo  o#oooooo  ",
"  +++o+oo X+oooooooooooooo#o  +oooooooooo+#o  oooooo  o#oooooo  ",
"  #++oooo X+oooooooooooooo#o  +oooooo+++++#o  oooo#o  oooooooo  ",
"  ##+++++  +ooooo++++++++++o  #+++++++++++#o  oooo#o  o#oooooo  ",
"  o#o+++o  +++++++######+ooo  ##ooooooXooo#o  ooo##o  o##ooooo  ",
"  XXXXXXX    +   X     XXX     XXXXXXX XXX       X  X+ X++ +  o ",
"  +    +++++  ++ X+++ +++  +    ++++++ ++++++XX +++++     +++   ",
"                                                                "
};
