/* XPM */
static char *result[] = {
/* columns rows colors chars-per-pixel */
"64 64 5 1 ",
"  c black",
". c #3B2626",
"X c #4B534C",
"o c #687069",
"O c None",
/* pixels */
"OOOOOOOOOOOOOOOOOOOOO                      OOOOOOOOOOOOOOOOOOOOO",
"OOOOOOOOOOOOOOOOOOOOO                      OOOOOOOOOOOOOOOOOOOOO",
"OOOOOOOOOOOOOOOOOO     oooooooXoooooooooo     OOOOOOOOOOOOOOOOOO",
"OOOOOOOOOOOOOOOOOO     XooooooXXooooooooo     OOOOOOOOOOOOOOOOOO",
"OOOOOOOOOOOOOOOOO   oooXXooooooXXooooooooooo   OOOOOOOOOOOOOOOOO",
"OOOOOOOOOOOOOOOOO  oooooXoooooooXXoooooooXXoo  OOOOOOOOOOOOOOOOO",
"OOOOOOOOOOOOOOOO  ooooooXXoooooooXoooooooXoooo  OOOOOOOOOOOOOOOO",
"OOOOOOOOOOOOOOOO  oooooooXooooooooXoooooXXoooo  OOOOOOOOOOOOOOOO",
"OOOOOOOOOOOOOOO  ooooooooXXoooooooXXooooXoooooo  OOOOOOOOOOOOOOO",
"OOOOOOOOOOOOOOO  ooooooooooooooooooXXXooooooooo  OOOOOOOOOOOOOOO",
"OOOOOOOOOOOOOO  oooooooooooooooooooooXXooooooXXo  OOOOOOOOOOOOOO",
"OOOOOOOOOOOOOO  oooooooooooooooooooooooXXXoooXoo  OOOOOOOOOOOOOO",
"OOOOOOOOOOOOO  ooooooooooooooooooooooXXooXXooXooo  OOOOOOOOOOOOO",
"OOOOOOOOOOOOO  ooooooooooooooooooooooXooooXXXXooo  OOOOOOOOOOOOO",
"OOOOOOOOOOOO  XoooooooooooooooooooooXXoooooXoooooo  OOOOOOOOOOOO",
"OOOOOOOOOOOO  XooooooooooooooooooooXXooooooXXXXooo  OOOOOOOOOOOO",
"OOOOOOOOOOO  ooXoooooooooooooooooooXooooooooooXXXoo  OOOOOOOOOOO",
"OOOOOOOOOOO  ooXooooooooooooooooooXXooooooooooooXoo  OOOOOOOOOOO",
"OOOOOOOOOO  oooXXXXXXXXXoooooooooooooooooooooooooooo  OOOOOOOOOO",
"OOOOOOOOOO  ooooXoooXooXXXooooooooooooooooXooooooooo  OOOOOOOOOO",
"OOOOOOOOO  oooooXoooXooooXoooooooooooooooooXooooooooo  OOOOOOOOO",
"OOOOOOOOO  ooooXoXooXXoooXoooooooooooooooooXXoooooooo  OOOOOOOOO",
"OOOOOOOO  ooooXXoXXooXoooXXoooooooooXoooooooXooooooooo  OOOOOOOO",
"OOOOOOOO  oooXXoooXooXXoooXoooooooooXXXoooooXXoooooooo  OOOOOOOO",
"OOOOOOOO  oooXooooooooXoooXoooooooooooXXXXXXXXoooooooo  OOOOOOOO",
"OOOOOOOO  oooXooooooooXXoooooooooooooooooooooXXooooooo  OOOOOOOO",
"OOOOOOOO  oooXXoooooooooooooooooooooooooooooooXooooooo  OOOOOOOO",
"OOOOOOOO  oooooooooooooooooooooooooooooooooooooooooooo  OOOOOOOO",
"OOOOOOOO  oo             o            oo            oo  OOOOOOOO",
"OOOOOOOO  oo             o            oo            oo  OOOOOOOO",
"OOOOOOOO  oo  ooooooooo  oooooo  ooooooo  ooooXooo  oo  OOOOOOOO",
"OOOOOOOO  oo  Xoooooooo  ooXooo  ooooooo  oooXoooo  oo  OOOOOOOO",
"OOOOOOOO  oo  XXooooooo  ooXXoo  ooooooo  oooXoooo  oo  OOOOOOOO",
"OOOOOOOO  oo  oXooooooo  oooXXo  ooooooo  ooXooooo  oo  OOOOOOOO",
"OOOOOOOO  oo  oXooooooo  ooooXo  ooooooo  XXXooooo  oo  OOOOOOOO",
"OOOOOOOO  oo  oXooooooo  oooooo  ooooooo  Xooooooo  oX  OOOOOOOO",
"OOOOOOOO  oo  oXXoooooo  oooooo  ooooooo  oooooooo  XX  OOOOOOOO",
"OOOOOOOO  oo  ooXoooooo  oooooo  ooooooo  oooooooo  oo  OOOOOOOO",
"OOOOOOOO  oo             oooooo  ooooXoo            oo  OOOOOOOO",
"OOOOOOOO  oo             oooooo  oooXXoo            oo  OOOOOOOO",
"OOOOOOOO  oo    ooXoooooooooooo  ooXXooo  oooooooooooo  OOOOOOOO",
"OOOOOOOO  oo     ooXXoooooooooo  oXXoooo  oooooooXoooo  OOOOOOOO",
"OOOOOOOO  oo  o   ooXoooooooooo  XXooooo  ooooooXXoooo  OOOOOOOO",
"OOOOOOOO  oo  oo   ooXooooooooo  ooooooo  ooooooXXXXXo  OOOOOOOO",
"OOOOOOOO  oo  ooo   oXooooooooo  ooooooo  oooooooooXXo  OOOOOOOO",
"OOOOOOOO  oo  oooo   ooooooooXo  ooooooo  oooooooooXoo  OOOOOOOO",
"OOOOOOOO  oo  ooooo   ooooooXXo  ooooooo  ooooooooXXoo  OOOOOOOO",
"OOOOOOOO  oo  oooooo   oooooXoo  ooooooo  oooooXXXoooo  OOOOOOOO",
"OOOOOOOO  oo  ooooooo   ooooXoo  ooooooo  oooooXoooooo  OOOOOOOO",
"OOOOOOOO  oo  oooooooo   o            oo  oooooXoooooo  OOOOOOOO",
"OOOOOOOO  oo  ooooooooo  o            oo  ooooXXoooooo  OOOOOOOO",
"OOOOOOOO  ooooooooooooooooooooooooooooooooooooXooooooo  OOOOOOOO",
"OOOOOOOO  oooooooooooooooooooooooooooooooooooXXooooooo  OOOOOOOO",
"OOOOOOOO  oooooooooooooooXoooooooooooooooooooXoooooooo  OOOOOOOO",
"OOOOOOOO  ooooooooooooooXXoooooooooooooooooooXoooooooo  OOOOOOOO",
"OOOOOOO   ooooooooooooXXXooooooooooooooooooooXoooooooo   OOOOOOO",
"OOOOOO    ooooooooooXXXooooooooooooooooooooooooooooooo    OOOOOO",
"OOOOO    ooooooooXXXooooooooooooooooooooooooooooooooooo    OOOOO",
"OOOOO   ooooooooXooooooooooooooooooooooooooooooooooooooo   OOOOO",
"OOO                                                          OOO",
"OOO                                                          OOO",
"OO   ......................................................   OO",
"OO   ......................................................   OO",
"OO  ........................................................  OO"
};
