/* XPM */
static char *result[] = {
/* columns rows colors chars-per-pixel */
"64 64 13 1 ",
"  c #3E4B52",
". c #4B415A",
"X c #4C415A",
"o c #5F4452",
"O c #57475A",
"+ c #64484F",
"@ c #624551",
"# c #664853",
"$ c #71535A",
"% c #4B5A61",
"& c #83676C",
"* c #657B83",
"= c None",
/* pixels */
"%%%%*****          %%%%%%%%%%%%%%%%%%%%%%%%%%%%%%  %%%%%%%% ** %",
"%%**%***%**%%    **********%%%   **********%%%%%%  %%%%%***** %%",
"%%%%%%%%%%%%%% %&$&$&$&$&$&$&$&$&$&$&$&$&$&$&$&%% &$&$$$&$&$&$$%",
" &$&$&$&$&$&$%  $&$&$&$&$&$&$&$&$&$&$&$&$&$&$&$*% $&$&$$$&$&$&$%",
" $&$&$&$&$&$&*% &$&$&$&$&$&$&$&$&$&$&$&$&$&$&$&*% &$&$&$&$&$&$$%",
" &$&$&$&$&$&$*  $&$&$&$&$&$&$&$&$&$&$&$&$&$&$&$%% $&$&$&$&$&$&$%",
" $&$&+&+&$&$&*  &$&$&$&$&$&$&$&$&$&$&$&$&$&$&$&%% $$&$&$&$&$&$$%",
"%$$$$$$$+$$$$*  $&$&$&+$$$$$$$$$$&$&$+$&$&$&$&*%% $&$&$+$&$&$&$%",
"%$$$$+++$$$$$*  &$&$&$&$$$$$$++$$$$$$$$+$$&$&$*%%%$$$$++$$++$$$%",
" $+$$$$++$$$$*  &O&$$$$$$$$+$$$$$++$$+$+$$$$$$$   $$$$$+++++$$$ ",
" $$$$$$++$$$$*  O&+$$$$$$$++$$$$$$+$$+$$+$$$+$$   $$$+$+$$$+$$$ ",
"%$+$$$$&$+$$$*  &++$$$+$$++$+++O&$&+&+&$$+$$+O&O O&O$++$+$&O+O& ",
"%$+$&$O&+++$&*  $+O++++$O&O&+&++O&O++$O&$++&O&O& &O&++O&O+O&+&O&",
"&O+O+O&O++&&$*  ++&O&O&++O&++O&+&O&++$&O&O&+++&O O&O&+&O&O&O+O&O",
"O&O++&O&O+O&O* %$$O$O&O&$+++O&O&O+++O&O&O&O+++$   O&O+O&O&O&O&O&",
"&O&O&O&O$+&O&* %$$&O&O&O&O&O&O&O$O&O.O&O&O&O&O$   &O&$$$$$$%$$$ ",
"%%****%%**O&O  %**%%O&O%****** **% *********      O&O   ***%%*  ",
"%%     %   %    %%******%**              %*****%  *******%%%%%  ",
"***%&$&$&     &+&$&$%%%%           $&$&$        &$&$&$&$&%%   % ",
" %$$$&$&$&$&$&$&+&$&$&$&$&$&$$%%%$$&$&$&$&$&$&$&$&$&$&$&$&$&$$% ",
"  $$&$$$&$&$&$&$+$&$+++++$&$$$ **$$$&$&$&$&$&$&$&$&$&$&$&$&$&$% ",
"  $$$$$$$&$&$&$&+&$&$&$&++$&$$ %%$$&$&$&$&$&$&$&$&$&$&$&$&$&$$* ",
"  $$&$&$&$&$&$&$+$&$&$&$&$$$$$%% $$$$$&$+$&$&$&$&$&$&$&$&$&$&$* ",
"% $$$+$$$&$&+&$$+&$&$$$&+$$$$$%%%$$$$&$&+&$&$&$+$$$&$&$&$&$$$$* ",
"% @$+++$$$$$++$$&$$$&+&$&+$$$$*  +$$$$$++$&$&$&+$$+$$$$$$$$$$$* ",
"%%$$+$+$$$$+++$$$$$+$+$$$+$$$$*%%+$$&O&+++$$$$&+&$+O&O$$$$+$$$* ",
" %$@+&$+O&$+$+O&$&$+$+$$$$+&$$*&O+$$O&++@+O&O&O+O.++O&O.++#&O&*%",
"  $O+O.+&O++$+$O$$&+.+&O.$+O.$*O&+$$&O+O&+&O&O&O+O&+&O&$+$+O&O* ",
"  $&O&@$+&O&..$&O+++.++$O$O+$$%&O+O.O&+&O.+&O&@&+&O&+&O.+++++&  ",
" %$..+.$.O&O.o&$$O&O.O++&O&+.$% &O&@.$&O&$++&$$++O&O++$$++&O&$  ",
"   %** %%***%  %*&O& %O&O*%  *% O&O%% O&O**+*%   %%%%%%%  O&O*  ",
"   %%*  %**%%  %%**  *****% *%% ***      %  %%%   %%**    *%%   ",
"% &$&$& &$&$&    $&$&                  $&$&$           %        ",
" &$&$&$&$&$&$   $++&$&++++++$$$$$$$&$&$&$&$&$$$$   &++$&$&$$$$$ ",
" $&$&$&$&$&$&%  $$+$&$&$&$&+++&$&$&$&$&$&$&$&$$$   $++&$&$&$&$$ ",
"%&$&$&$&$&$&$*  $&$++&$&$&$&$+$&$&$&$&$&$&$+$&$$*  &$+$&$&$&$&$%",
" $&$&$&$&$&$$*  $$&$++&$&$&$&++$&$&$++&$&$&+&$+$*  $&+&$&$&$&$$ ",
" $$$$&$&$&$&$ % $$$&$&+&$&$&$&+&$&$&+&$$$&$+$+$$*  $$&+&$&$&$&$ ",
" $$$$$$$&$&$$ % $$$+$$$++$$$$$+$$$$$+$$$$$&+&+$$   $$$+$$+++$$$ ",
" $$$$+$$$$$$$ % $$$+$$$$+$$$$$+$$$$$+$$$$$$+$+$$   $$$++$++$$$$ ",
" $$$$+$+O&O$$ % $$++$$$$$+$$+$$+$$$$+$$$$$$+$+$$   $$$$++++$$$$ ",
" O&O&+$$+O+$$*% &O+$$$$$&O&O+$$+&O$$+++$$$$++O&$   O++&++$+$&O& ",
"%&O&+$$$+&+&$** O&+$$+O&O&O+$+O&+&$&+&O+$$O+O&O$*  &O+++O&++O+O ",
"%O&O+$.@+O+O    &O+O.+++&O++&++O+O.+&O&++O&+&O&%*  O&O++&O&+++& ",
" $O++&O.O++&$%  $&+&$&O++++&O&+++++&O&O&++++O&O.*  ++++&+&O&++$ ",
" $..&O&.&O+X$%  $O&O.O&O&++O&O.O&O.O&O&$.O&O&@.**  %.O&O&O&@.$$ ",
"    O&O *%****% *****&O&***************%%%% ***%% %% ***%%**%%% ",
"  %              &$&$&$&$%%%%%%    %%%%%%%*%    %%%%%*%%%%%%%%% ",
"  &$&$&$&$$$$$&$&$&$&$&$&$&$&$ %*$$$$$$$$$$$$$$$$$$$$$$$$$&$&$  ",
"  $&$&$&$&$&$&$&$&+&$&++$&$+$& %*&$&$&$&$&$&$&$&$&$&$$$&$&$&$$ %",
"  &$&+&$&$&$&$&$&$+$&$&++$&+&$ %*+&$&$&$&$&$&$&$&$&$&$&$&$&$&$  ",
"  $&$++&$&$&$&$&$&+&$&$&++$+$& **+$&$&$&$&$+$&+&$&$&$&$&+&$+$$  ",
"  $$$$+$&$&$&+&$&$$+$$$$&+++&$ %*++$&$&$&$&+&$&+&$&$&$&$+$&+$$  ",
"  $$$$++$&$&$+$$$$$+$$$$$$++$$ %*&++$&$$$$$+$$$+$$$&$&+&+&$+$$  ",
"  $+$$$+$$$$$+$$$$$++$$$$$$++$  %$$$+++$$$$++$$$+$$$+++$+$$+$$  ",
"%%$+$$$++$$$$+$$$$$$+$$$$$$+++% %$$+$$$+++$$+$$$+$$$$$$$+$$+$$  ",
"% O+O$$$$$$$$++$$$$$++$$$$$+$$%  $$++++++++++++$++$$$$$$+$$$+$ %",
"% &O+O$$$$$+$$+$$$$$$$++$$$+$$%% $+++$$$$$$$+++++$$$$$$$+$$$+$  ",
"  O&+&$+$$$+$$+$$$$&O&O++$$+$$*  $+$+&O$O&O$$&O&$+$&++++$$$$+$  ",
"  &O&+$++O&+&O+O&O$O&O&O$$&++$* %$&O++&O&O&O&O&+++++&O&O.O&O+$  ",
"  O&O++&+&O+O&+&O&O&O&O&O&O&+$* %$O&++O&O&O&+++++&+&++O&=&O+=$  ",
"  &O+++O++++&++O&++++++++++O&$* %$&O&++O&O++&O&O&O.=&O+++O++&O  ",
"% +++.=&O&O&O+O&O.O&O.=&O&O&O$* %$$$$&++++$$$%%&O&$$$$$.=.O&O&  ",
"%      %%%%%  &O&      %%%&O&   %%%%%%%%%%%%%******%%%%%**&O&O% "
};
