/* XPM */
static char *result[] = {
/* columns rows colors chars-per-pixel */
"64 64 15 1 ",
"  c #50343B",
". c #5D3F44",
"X c #3E4B52",
"o c #4B415A",
"O c #4C415A",
"+ c #5F4452",
"@ c #57475A",
"# c #64484F",
"$ c #624551",
"% c #664853",
"& c #71535A",
"* c #4B5A61",
"= c #83676C",
"- c #657B83",
"; c None",
/* pixels */
"****-----XXXXXXXXXX******************************XX********X--X*",
"**--*---*--**XXXX----------***XXX----------******XX*****-----X**",
"**************X*=& & & & & &=& & & & & & & & &=**X=& & & & &=  *",
"X=&=& &=&=& &*XX& & & & & & & & & & & & & & & &-*X& & & & & &  *",
" & & & & & & -*X=& & & & & & & & & & & & & & &=-*X=& & & & & & *",
"& & &=& & & &-XX& & & & & & & & &=& & & & & & &**X  & & & & & &*",
"X  & &=&=&=  -XX=& & & &  = = = =&=& & & & & & **X & & &=& & & *",
"*       #    -XX&.& & &          = = #  & & & &**X =& & & & & &*",
"*    ###     -XX=& & &=      ##        #   & & ***   & &&& & & *",
"X #    ##    -XX= & &      #     ##  # #       XXX  & & & & & &X",
"X      ##    -XX & &      ##      #  #  #   #  XXX   & & & & & X",
"* #    =&#   -XX&@# & #  ##&###@#@##=@# @   @ #@X@=@& & & &@#@=X",
"*@ @ @ @ @ @ -XX @ @ @ @ @ @ @ @ @@# @@@ @@@ @ =X#@@ @ @ @ @ @ =",
"# @ @ @ @ @ @-XX@ @ @ @ @ @ @ @ @ #@@ #@#@#@# @@X@# @ @ @ @ @ @@",
"@#@#@#@#@#@#@-X* &@#@#@#@#@#@#@#@#@#@#@=@#@#@#@XXX@#@#@#@& #@#@=",
"#@#@#@#@#@#@=-X*& &@#@#@#@=@=@=@#@=@#@#@=@#@#@&XXX=@#@#@&&&*&&&X",
"**----**--@=@XX*--**@=@*------X--*X---------XXXXXX@=@#@X---**-XX",
"**XXXXX*XXX*XXXX**------*--XXXXXXXXXXXXXX*-----*XX-------*****XX",
"---*=&=&=XXXXX & &=&****XXXXXXXXXXX&=&=&XXXXXXXX=&=& & &=**XXX*X",
"X*  & & & & &=& & &=& & &=&=  ***   & & &=&=& & & & & & & & @ *X",
"XX & & & & & & & & & & & & &  X--  & & & & & & & & & & & & @  *X",
"XX  & & & & & & & & & & & &   X**   & & & & & & & & & & & & @ -X",
"XX & & & & & & & & & & & & &  **X    & & & & & & & & & & &=@  -X",
"*X   #  & & #=  &   & & #     ***   & & & & & @ & & @ @ &   @ -X",
"*X @## @ & & @ @=  @ @ @ @ @  -XX#  @@ ##@ @ @ @ @ @ @ @   @ @-X",
"**@ @&@ @ @ @ @   @ @ @ @ @ @ -** @ # @## @ & @ @ @ @ @   # @ -X",
"X* @ #@@ @ @ @@= @ #@@ #@@ @  -@ @ @@#@#$#@#@#@#@#@# @ @@#%# @-*",
"XX @#@#@#@##&#&@#@#@#@#@#@#@o - @# @#@#@#@#@#@#@#@#@#@#@#@#@@ -X",
"XX #@#@#@#@#oo&#@#@#@#@#@#@#& *@ @ #@#@#@##=@@ =@#@=@#@#@#@#@=XX",
"X* @#@o&#@#@o+=@#@#@o@##=@#@o * @ @@#@#@#&##= @##@=@##&&###@=&XX",
"XXX*--X**---*XX*-#@=X#@=@-*XX-*X@=@**X@=@--#-*XXX*******XX@=@-XX",
"XXX**-XX*--**XX**--XX-----*X-**X---XXXXXX*XX***XXX**--XXXX-**XXX",
"*X & & & & &=XXXX&=&=XXXXXXXXXXXXXXXXXX&=&=&XXXXXXXXXXX* & &XXXX",
"X & & & & & &XXX ## & & ####      & &=&=& &     XXX=##& & & &  X",
"X& & & & & &=*XX  #& & & & &## & & & & &=& &    XXX& & & & & & X",
"* &@# & & &  -XX =& & & & & & & & & & & & & &=  -XX=& & & & &  *",
"X  #@& & & & -XX  =& & & & & & & & & & & & & &# -XX  & & & & & X",
"X  @# & & &  X*X   =  & & & & &  = =& & & & &   -XX & & & &= = X",
"X  #@& & & & X*X   #   # & & &#      & & & &=   XXX    &&      X",
"X  @##    &  X*X   #    # & & #     # & & & &   XXX     &      X",
"X@ @ # #@@   X*X  ##     @ @ & #    #      #&   XXX            X",
"@ @ @   # @  -#@# @     @ @ #   @@  ###    ##@@ XXX@@ @ @ @ @ =X",
" @@@ @@#@# @ -@#@@   #@#@#@#@#@@ #@#@#@# #@#@@ @-X @ @ @ @ @ @ X",
"*@#@#@#@#@#@XX#@#@#@#@#@#@#@#@#@#@#@#@=@#@#@# @ -X@ =@#@#@#   @X",
"X&@#@#@#@#@#&*@#@#@#@#@###@#@=@#@#@#@#@#@#@#@# @-XX  #@#@#@=  &X",
"X&#@#@=o=@#O&*XX&@=@o@=@=@#@=@o@#@#@#@#@#@=@=$o--XX*o@#@=@=$o&&X",
"XXXX@=@X-*----*X---- & =---------------****X---**X**X---**--***X",
"XX*XXXXXXXXXXXXX& & & &=&******XXXX*******-*XXXX*****-*********X",
"XX=&=&=& & & & & & & & & & & &X*-                        & &= XX",
"XX& & & & & & & & & & & & & &=X*& & & & & & & & & & & & & & & X*",
"XX & & & & & & & & & & & & & &X* & & & & & & & & & & & & & &  XX",
"XX& & & & & & & & &   & &#& &=X-& & & & & & & & & & & & & & & XX",
"XX   & & & & & &   #    =###= X*-# & &= = =#= =#=  & &=& & &  XX",
"XX    ## = = #     #      ##  X*-=##&=     #   #   =&=#=#= #  XX",
"XX #   #     #     ##      ## XX*   ###    ##   #   ### #  #  XX",
"** #   ##    #      #      ###*X*  #&&&###  #   # @ @   #  #  XX",
"*X@@     @ @ ##@ @  ## @ @ @  *XX  # @## @ @ @#@ @ @ @  #  @# X*",
"*X# @   @ @ @ @ @ @   # @ @ @ **X @ @ @&@ @ @ # @ @ @ @ @ @ @ XX",
"XX@@ @ @ @ @ @ @   @ @ @ @ @  -XX@ @ @ @ @ @ @ @ @ = @ @ @ @  XX",
"XX= @ @ @@@ @ @ @@@ @ @ # @## -X* @ @@@ @@@ # @ # @ @ # @ @ @ XX",
"XX@#@# @ # @@@ @@#@#@#@#@#@=# -X* @@ # @@#@#@@ #@# @ #@#@# @  XX",
"XX=@#@#@#@#@#@#@#@#######@#@= -X* #@#@#@#@#@=@#@#@#@#@###@#@=@XX",
"*X   o@#@#@=@#@#@#@=@o;=@#@#@ -X* @#@#@#@#@#&**=@#@#@#@o;o@#@=XX",
"*XXXXXX*****XX#@#@XXXXX***=@=XXX**#@*****@#@*------*****--#@#@*X"
};
