/* XPM */
static char *c4499514c8fc4ac29884751fdc18de3fhHJTcB8sw3269VhF[] = {
/* columns rows colors chars-per-pixel */
"64 64 19 1 ",
"  c None",
". c black",
"X c #190C0C",
"o c #1B1919",
"O c #201B1B",
"+ c #710404",
"@ c #44240D",
"# c #643310",
"$ c #3B4048",
"% c #30484E",
"& c #575C63",
"* c #9F1E1E",
"= c #EC1010",
"- c #975D3D",
"; c #E0B458",
": c #9D9D9D",
"> c #EED2A1",
", c #BBD9E6",
"< c #FDFEFD",
/* pixels */
"                                                                ",
"                                                                ",
"                                                                ",
"                                                                ",
"                                                                ",
"                                                                ",
"                                                                ",
"                                                                ",
"                                                                ",
"                                                                ",
"                        ....................                    ",
"                    .....------------------.....                ",
"                   ..-----------------------+--..               ",
"                 ..------------------------------..             ",
"                ..--------->->>>>>>>>-->>>>>>>->--..            ",
"               ..-->->>>>>>>>>>>>>>>>>>>>>>>>>>>---..           ",
"              ..-->>>>>>>>>>>>>>>>>>>>>>>>>>>>>>>>>-..          ",
"              .->>>>>>>>>>>>>>>>>>++>>>>>>>>>>>>>>>>-.          ",
"             ..>>>>>>>>>>>>>>>>+++>>>>>>>>>>>>>>>>>>-..         ",
"             ..>>>>>>>>>>>>>>++>>>>>>>>>>>>>>>>>>>>>>..         ",
"             ..>>>>>>>>>>>>>>>>>>>>>>>>>>>>>>>>>>>>>>..         ",
"             ..>>>>>>>>>>>..>>>>>>>>>>>>..>>>>>>>>>>>..         ",
"             ..>>>>>>>>>>>>..>>>>>>>>>>..>>>>>>>>>>>>..         ",
"             ..>>>>>>>>>>>>>..>>>>>>>>..>>>>>>>>>>>>>..         ",
"             ..>>+>>>>>>>>>>>.>>>>>>>>.>>>>>>>>>>>>>>..         ",
"             ..>>>>>>>>>....>>>>>>>>>>>>....>>>>>+>>>..         ",
"             ..>>>>>>>>>....>>>>>>>>>>>>....>>>>>+>>>..         ",
"             ..>>>>>>>>>....>>>>>>>>>>>>....>>>>>+>>>..         ",
"             ..>>>+>>>>>....>>>>>>>>>>>>....>>>>>>+>>..         ",
"             ..>>>>>>>>>....>>>>>>>>>>>>....>>>>>>>>>..         ",
"             ..>>>>>>>>>....>>>>>>>>>>>>....>>>>>>>>>..         ",
"             ..>>>>>>>>>>>>>>>>>>>>>>>>>>>>>>>>>>>>>>..         ",
"             ..@@@@>>>>>>#@@@@@@@@@@#@@@@@@>>>>>>@###....       ",
"             ..@@@@@@>>>@#>>>>>>>>>>>>>>>>@@>>>@##@@@......     ",
"             ..@@@@@@@>@@>>..............>>#@>@#@@@##.......    ",
"             ....@@@@@#@>>>..............>>>#@#@@@#....>>....   ",
"             ..$$...@@@@>>>>>>>>>>>>>>>>>>>#@#@@#...$..>+>...   ",
"     o o o o o.o.......@@@@@@@@@@@@@@@@@@@@@@###.$$$$..>>>>..   ",
"    o,o,o,o,o,o,.+=..*..###@@@@@@@@@@@@@@@@#.....$$&&..>>>>..   ",
"   o:::<++<:::::.+=..**......................$$$$$+&&..>+>...   ",
"   o++::::::++::.+==....$$$$$$.XXXXXX.$$$$$$$$$$$$&&;..>>....   ",
"    o%o%o%o%o%o%.+++++..$$$$$$...XX...$$$$$$$$+$$&+;;..>>...    ",
"     o o o o o...++.....$$+$$$$$.XX.$$$$$$+$$$$&&&&;;.......    ",
"             ..;.....&&$$$$$$$$$.XX.$$$$$+$$$&&&&&;;;......     ",
"             ..;;&&&&&&&$$$$+$$$.XX.$$$$+$$$&&&&&&;;+..         ",
"             ..;;;;&&&&&$+$$$$$$.XX.$$$+$$$$&&&&&&+;;..         ",
"             ..;+;;&&&&&&$$$$$$..XX..$$$$$$$&+&&&&;;;..         ",
"             ..;;;;&&&&&&&$$+$$.XXXX.$$$$$$$&&&&&&;;;..         ",
"             ..........................................         ",
"             ..XXXXXXXOOOOOOOOOOO..OOOOOOOOOOOXXXXXXX..         ",
"             ..XXXXXXXXXOOOOOOOOO..OOOOOOOOOXXXXXXXXX..         ",
"             ..........................................         ",
"             ..........................................         ",
"                                                                ",
"                                                                ",
"                                                                ",
"                                                                ",
"                                                                ",
"                                                                ",
"                                                                ",
"                                                                ",
"                                                                ",
"                                                                ",
"                                                                "
};
