/* XPM */
static char *_6bc4aaf8fec4bb7e305958ff0f3221ch8q8YOHrZGc6165i[] = {
/* columns rows colors chars-per-pixel */
"64 64 172 2 ",
"   c None",
".  c #000000",
"X  c #090603",
"o  c #0B0B03",
"O  c #04090E",
"+  c #0D0A0A",
"@  c #120303",
"#  c #190606",
"$  c #131203",
"%  c #1C1A02",
"&  c #1A190B",
"*  c #08101C",
"=  c #1B1614",
"-  c #1A1818",
";  c #070E18",
":  c #280A08",
">  c #221F00",
",  c #261E1C",
"<  c #262300",
"1  c #282504",
"2  c #3B3602",
"3  c #2D2C12",
"4  c #2A221D",
"5  c #272610",
"6  c #3A3717",
"7  c #0A1422",
"8  c #0C192A",
"9  c #0F1E34",
"0  c #102037",
"q  c #12243C",
"w  c #2B2422",
"e  c #342926",
"r  c #302623",
"t  c #3C302C",
"y  c #480B0B",
"u  c #591612",
"i  c #600701",
"p  c #600801",
"a  c #60140E",
"s  c #601A15",
"d  c #413C02",
"f  c #493A35",
"g  c #463833",
"h  c #403E28",
"j  c #484301",
"k  c #4A4507",
"l  c #554F02",
"z  c #524D09",
"x  c #565102",
"c  c #5A5403",
"v  c #5E5803",
"b  c #5C570D",
"n  c #4C491C",
"m  c #5A5616",
"M  c #655F04",
"N  c #625D0E",
"B  c #6D670B",
"V  c #726B0B",
"C  c #7C740D",
"Z  c #77700E",
"A  c #726B10",
"S  c #7C7512",
"D  c #7F7815",
"F  c #5B5824",
"G  c #54433E",
"H  c #726D2D",
"J  c #7A742A",
"K  c #7B762B",
"L  c #7A7530",
"P  c #686328",
"I  c #172D4D",
"U  c #1E3B65",
"Y  c #444444",
"T  c #574540",
"R  c #604D47",
"E  c #65504A",
"W  c #615F48",
"Q  c #7A615A",
"!  c #706E51",
"~  c #6D6D64",
"^  c #8E1B19",
"/  c #971A19",
"(  c #B71C1C",
")  c #B91E1D",
"_  c #BD241E",
"`  c #BD2B1E",
"'  c #F31302",
"]  c #F31A0A",
"[  c #F32213",
"{  c #CC2A25",
"}  c #E6352A",
"|  c #F43527",
" . c #E83C31",
".. c #837B0D",
"X. c #827B14",
"o. c #847D19",
"O. c #837D21",
"+. c #847E2D",
"@. c #C54221",
"#. c #C84B22",
"$. c #CC5423",
"%. c #D05124",
"&. c #F44336",
"*. c #D56C27",
"=. c #80675F",
"-. c #836961",
";. c #9C7D73",
":. c #8B820E",
">. c #8C8414",
",. c #8B831D",
"<. c #938B10",
"1. c #978F1C",
"2. c #9D9413",
"3. c #A49A15",
"4. c #ADA317",
"5. c #AFA41C",
"6. c #B5AA1A",
"7. c #B9AE1A",
"8. c #B2A718",
"9. c #BEB31A",
"0. c #8C8421",
"q. c #948C26",
"w. c #99922B",
"e. c #9D9424",
"r. c #918B39",
"t. c #928B30",
"y. c #8B8537",
"u. c #A49B23",
"i. c #A89F25",
"p. c #A29A32",
"a. c #ACA326",
"s. c #ADA42B",
"d. c #B4AA2B",
"f. c #B8AE2B",
"g. c #B4AA25",
"h. c #A9A137",
"j. c #B1A93E",
"k. c #BCB333",
"l. c #C5BA1C",
"z. c #C0B525",
"x. c #C9BE27",
"c. c #C7BE3E",
"v. c #F2BB31",
"b. c #FBBB35",
"n. c #CCC01D",
"m. c #CBC024",
"M. c #F6C432",
"N. c #FCC530",
"B. c #FDD835",
"V. c #ACA544",
"C. c #B6AF48",
"Z. c #B5AE45",
"A. c #BBB346",
"S. c #AA887E",
"D. c #A8867C",
"F. c #C7BE43",
"G. c #C5BD4E",
"H. c #C5BD4D",
"J. c #C2BA49",
"K. c #B08D82",
"L. c #B99488",
"P. c #C49D91",
"I. c #D0A799",
"U. c #D5AB9D",
"Y. c #CDA497",
"T. c #DCB0A2",
"R. c #DAAFA1",
"E. c #E8BAAB",
"W. c #E2B5A7",
"Q. c #F6C5B6",
"!. c #FFCCBC",
"~. c #F8C6B7",
/* pixels */
"                                                                                                                                ",
"                                                                                                                                ",
"                                                                                                                                ",
"                                                                                                                                ",
"                        . . . . . . . . . . . .                                                                                 ",
"                      . . 6 C.C.C.C.C.C.C.C.$ + = .                                                                             ",
"                    . . 6 Z.j.S Z S S S D S V.V.V.t , .                                                                         ",
"                    . - n j.S ..9.9.9.7.V V S S Z.V.3 , .                                                                       ",
"                    . 6 r.X.V ..m.F.F.F.7.V V V D Z.6 . w . . . . . . . . . . . . . . . . .                                     ",
"                    . n h.V ..g.F.G.G.H.F.6.C V V o.b x z z z x z z z x z x z b r.r.r.r.o . . . . . .                           ",
"                  . . n h.X.7.m.G.G.G.G.H.F.h.5.8.4.4.4.4.8.8.8.8.4.8.8.8.2.V A 0.,.0.0.z k k K y.W . .                         ",
"                  . . +.o.,.m.m.G.G.G.G.H.H.G.m.n.n.n.n.n.n.n.n.n.n.n.n.n.9.4.4.4.4.4.4.4.4.C ,.0.+.3 . .                       ",
"                . . F p.X.8.x.G.G.G.A.O.O.o.O...:.g.9.k.9.k.z.z.9.k.f.9.m.n.n.9.9.k.n.n.n.n.4.3.C ,.K 3 . .                     ",
"                . ! K o.<.m.F.G.A.0.0.z l x l x l 2.f.f.f.f.f.f.f.f.4.:.<.<.<.>.>.<.<.<.<.:.9.n.4...h.r.3 . .                   ",
"              . . F p.D h.c.F.k.o.l l l l l x x D a.f.f.f.f.f.f.a.>.C B B v B v M B v M B x ..9.n.4.e.w.K 3 . .                 ",
"              . Y n 0.q.F.H.d.B x l l l l l S X.a.f.f.f.f.f.f.u.C B B v v B v B M M v v c x x :.9.l.4...,.K 3 . .               ",
"            . . 3 m ..s.J.s.b $ x x x l x Z d.f.f.f.f.f.f.u.<.Z M M M M M M M M v v l l x l l l V 8.n.4.C w.P G .               ",
"            . Y m e.4.m.s.b X < l x x x Z d.f.f.f.f.f.f.d.>.B M M M M M M M M v l l x l l l l l % b 6.l.4.e.J 5 .               ",
"          . . 5 z 2.n.n.o.. % l l x x V f.f.f.f.f.f.f.f.a.Z B M M M M M M v M l l l x l l l x x < X X.n.n.2.w.H .               ",
"        . . . H w.2.6.1.N X < x l x V f.f.f.f.f.f.f.a.2.Z B v M M M M M v l l l l l d d d 2 d 2 l % N 9.n.2.w.H .               ",
"        . . & J 0.2.V X $ < l x c V f.f.f.f.f.f.a.u.V M M M B v k c v l l l l d d d . e e e e + 2 < X N 9.2.w.H .               ",
"        . . L q.V 2.A < l l l c V f.f.f.f.f.f.a.B B B c x x x 1 . % j j j j d , 4 , 4 Q.!.!.!.T 2 l % . A 2.w.H .               ",
"        . . L q.V 2.A > l l x A f.f.f.f.d.a.a.V v c c % + = - = = = = = = = g !.!.!.!.!.!.!.!.!.g 2 % . A 2.q.H . .             ",
"        . . L q.V 2.A > l x V f.f.f.f.f.s.X x v $ o + + D.!.!.!.!.!.!.!.!.!.!.!.!.!.!.!.!.!.!.!.g 2 l < A 2.V q.L .             ",
"        . . L q.V 2.A < x V f.f.f.f.f.s.. . . . . P.!.!.!.!.!.!.!.!.!.!.!.!.!.!.!.!.!.!.!.!.!.!.g . 2 % A 2.V q.L .             ",
"        . . L q.V 2.A > Z d.f.f.f.e.X o . E.~.~.~.!.!.!.!.!.!.!.!.!.!.!.!.!.!.!.!.!.!.!.!.!.!.!.Q.f 2 < d V V q.L . .           ",
"        . . L J.q.Z j d s.f.0.$ $ 4 E.E.E.!.!.!.!.!.!.!.!.!.!.!.!.!.!.!.!.!.!.!.!.!.!.!.!.!.!.!.!.f X . X P A.J o . .           ",
"        . . + & $ o o O % & $ r T.T.!.!.!.!.!.!.!.!.!.!.!.!.!.!.!.!.!.!.!.!.!.!.!.!.!.!.!.!.!.!.!.E.T.T . o & ~ . .             ",
"        . . . . . . . G I.I.I.T.!.!.!.!.!.!.!.!.!.!.!.!.!.!.!.!.!.!.!.!.!.!.!.!.!.!.!.!.!.!.!.!.!.!.!.E . . . . .               ",
"              . . . . E !.!.!.!.!.!.!.!.!.f t t t I.!.!.!.!.!.!.!.!.!.!.!.I.t t t f !.!.!.!.!.!.!.!.!.E . .                     ",
"                  . . E !.!.!.!.!.!.!.!.!.+ . . . P.!.!.!.!.!.!.!.!.!.!.!.P.. . . + !.!.!.!.!.!.!.!.!.E . .                     ",
"                  . . E !.!.!.!.!.!.!.!.!.+ . . . P.!.!.!.!.!.!.!.!.!.!.!.P.. . . + !.!.!.!.!.!.!.!.!.E . .                     ",
"                  . . E !.!.!.!.!.!.!.!.!.+ . . . P.!.!.!.!.!.!.!.!.!.!.!.P.. . . + !.!.!.!.!.!.!.!.!.E . .                     ",
"                  . . E !.!.!.!.!.!.!.!.!.+ . . . P.!.!.!.!.!.!.!.!.!.!.!.P.. . . + !.!.!.!.!.!.!.!.!.E . .                     ",
"                  . . E !.!.!.!.!.!.!.!.!.+ . . . P.!.!.!.!.!.!.!.!.!.!.!.P.. . . + !.!.!.!.!.!.!.!.!.E . .                     ",
"                  . . R !.!.!.!.!.!.!.!.!.Q Q Q Q W.!.!.!.!.!.!.!.!.!.!.!.W.Q Q Q =.!.!.!.!.!.!.!.!.!.E . .                     ",
"                  . . E !.!.!.!.!.!.!.!.!.!.!.!.!.!.!.!.!.!.!.!.!.!.!.!.!.!.!.!.!.!.!.!.!.!.!.!.!.!.!.E . .                     ",
"              . . . . E !.!.!.!.!.!.!.!.!.!.!.!.!.!.!.!.!.!.!.!.!.!.!.!.!.!.!.!.!.!.!.!.!.!.!.!.!.!.!.E . . . .                 ",
"            . . . . . E !.!.!.!.!.!.!.!.!.!.!.!.L.S.D.S.S.S.S.S.S.S.S.S.S.S.L.!.!.!.!.!.!.!.!.!.!.!.!.E . . . . .               ",
"          . . 4 f , . f L.Y.!.!.!.!.!.!.!.!.!.!.r . . . . . . . . . . . . . r !.!.!.!.!.!.!.!.!.!.Y.L.f . , f 4 . .             ",
"        . . , S.!.-.. @ # t P.I.!.!.!.!.!.!.!.!.R t t t t t t t t t t t t t R !.!.!.!.!.!.!.!.I.P.g # @ . -.!.S., . .           ",
"      . . - K.!.!.-.. y ^ : # w T.!.!.!.!.!.!.!.!.!.!.!.!.!.!.!.!.!.!.!.!.!.!.!.!.!.!.!.!.!.U.w @ : ^ y . -.!.!.K.- . .         ",
"      . . D.!.!.!.-.. s &. ./ @ , T.T.T.T.!.!.!.!.!.!.!.!.!.!.!.!.!.!.!.!.!.!.!.!.!.T.T.T.T., # / } &.s . -.!.!.!.D.. .         ",
"      . . ;.Q.!.!.-.. s &.&. ./ @ @ X @ . T.E.E.E.E.E.W.E.E.E.E.E.E.E.E.E.E.E.W.E.T.. @ X @ # /  .&.&.s . -.!.!.Q.;.. .         ",
"      . . . ;.!.!.-.. s &.&.&.&. .) _ ) X X X X X X X . . X X X X X X . X X X X X X X ( ( )  .&.&.&.&.s . -.!.!.;.. . .         ",
"        . . D.!.!.-.. i [ &.&.&.&.&.&.&.&.) ( ( ( ( ( ( ( ( ( ( ( ( ( ( ( ( ( ( ( ( &.&.&.&.&.&.&.&.[ i . -.!.!.D.. . .         ",
"          . X ;.!.-.X i ' ] [ &.&.&.&.&.&. . ._ ( ( ( ( ( ( ( ( ( ( ( ( ( ( ( _  .&.&.&.&.&.&.&.[ ' ' i . -.!.;.X . .           ",
"            . + = + . i ' ' ' [ &.&.&.&.&.&.b.M.M.@.( ( ( ( ( ) ( ( ( ( ( @.v.M.b.&.&.&.&.&.&.[ ' ' ' i . + = + . .             ",
"              . . . . i ' ' ' ' ] ] ] ] ] ] N.B.B.M.v.v.v.v.v.v.v.v.v.v.v.v.B.B.N.] ] ] ] ] ] ' ' ' ' p . . . . .               ",
"                . . . i ' ' ' ' ' ' ' ' ' ' N.B.B.B.B.*.@.@.@.@.@.@.@.*.B.B.B.B.N.' ' ' ' ' ' ' ' ' ' i . . . .                 ",
"                  . . i ' ' ' ' ' ' ' ' ' ' N.B.*.#.#.` ( ( ( ( ( ( ( ` #.#.*.B.N.' ' ' ' ' ' ' ' ' ' i . .                     ",
"                  . . i ' ] | | | | | | | | %.$._ ( ( ( ( ( ( ( ( ( ( ( ( ( _ $.%.| | | | | | | | ] ' i . .                     ",
"                  . . a | } { { { { { { { { ) ( ( ( ( ( ( ( ( ( ( ( ( ( ( ( ( ( ) { { { { { { { { } | a . .                     ",
"                  . . : s u y y y y y y y y y y y y y y y y y y y y y y y y y y y y y y y y y y y u s : . .                     ",
"                  . . O 8 0 0 9 7 7 7 7 7 7 7 7 7 7 7 * 7 7 O . O 7 7 7 * 7 7 7 7 7 7 7 7 7 7 9 0 0 8 O . .                     ",
"                  . . ; I U U U I q q q q q q q q q q I q q * . * q q q I q q q q q q q q q I U U U I ; . .                     ",
"                  . . O 8 0 0 0 9 7 7 7 7 7 7 7 7 7 7 7 7 7 O . O 7 7 7 7 7 7 7 7 7 7 7 7 7 9 0 0 0 8 O . .                     ",
"                  . . . . . . . . . . . . . . . . . . . . . . . . . . . . . . . . . . . . . . . . . . . . .                     ",
"                  . . . . . . . . . . . . . . . . . . . . . . . . . . . . . . . . . . . . . . . . . . . . .                     ",
"                                                                                                                                ",
"                                                                                                                                ",
"                                                                                                                                ",
"                                                                                                                                ",
"                                                                                                                                "
};
