/* XPM */
static char *_6ee44a5aa1d4a97c3b33134726f21e5IuKFDzsKKRA7Urbo[] = {
/* columns rows colors chars-per-pixel */
"64 64 11 1 ",
"  c None",
". c black",
"X c #342D2C",
"o c #422F25",
"O c #4D4440",
"+ c #4F4D4A",
"@ c #74726F",
"# c #A09C97",
"$ c #CF98BA",
"% c #FFCCBC",
"& c #F0ABD5",
/* pixels */
"                                                                ",
"                                                                ",
"                                                                ",
"                                                                ",
"                                                                ",
"                                                                ",
"                                                                ",
"              .............................$$$$                 ",
"             ..XXXXXXXXXXXXXXXXXXXXXXXXXX$$$&$$..               ",
"            .XXXOOOOOOOXXXXXXXXXXXXXXXX$$$&&&$$X.               ",
"           ..XXOOOOOOOOOOOOOoooooooXXX$$$&&&&$$XX..             ",
"           .XXOOOOOOOOOoooooooooooooo$$&&&&&&$$oXX..            ",
"           .XOOOOOOoooooooooooooOOO$$$$&&&&&&&$$oXXXX           ",
"          .XXOOOOOoooooooooOOOOOOO$$&&&&&&&&&&&$$$$$$$$         ",
"          .XOOOOOooooooooOOOOOOOo$$&&&&&&&&&&&&&&&&&$$$$        ",
"         ..XOOOooooooooOOOOOOOOOo$$$$$&&&&&&&&&&&&&&&&&$$       ",
"         .XXOOooooooooOOOOOOOOooo$$$$$$$$$$$&&&&&&&&&&&&$       ",
"        ..XOOOoooooooOOOOOOOOOooooooooooo$$$$$&&&&&&&&&&$       ",
"        .XXOOOooooooOOOOOOOOOooooooooooooooo$$$$&&&&&&$$$       ",
"       .XXOOOooooooOOOOOOOOooooooooooooooo.....$$&&&&$$$        ",
"       .XOOOOoooooOOOOOOOooooooooooooooo...%%%%$$&&&$$$.        ",
"       .XOOOOooooOOOOOOOoooo...........%%%%%%%%$$&&&$$XX        ",
"      ..XOOOooooOOOOOOoooo...%%%%%%%%%%%%%%%%%%%$$&$$ooX.       ",
"      .XXOOOoooOOOOOooo...%%%%%%%%%%%%%%%%%%%%%%.$$$oooX.       ",
"      .XXOOoooOOOOOOoo..%%%%%%%%%%%%%%%%%%%%%%%%%.oooooX.       ",
"      .XXOoooOOOOOooo..%%%%%%%%%%%%%%%%%%%%%%%%%%..ooooX.       ",
"     .XXooooOOOOOOo..%%%%%%%%%%%%%%%%%%%%%%%%%%%%%%.oooXX.      ",
"     .XooooOOOOOOo..%%%%%%%%%%%%%%%%%%%%%%%%%%%%%%%..oooX.      ",
"     .XoooOOOOOoo..%%%....%%%%%%%%%%%%....%%%%%%%%%..oooX.      ",
"    .XooooOOOOo...%%%%....%%%%%%%%%%%%....%%%%%%%%%..oooX.      ",
"    .XoooOOOOo..%%%%%%....%%%%%%%%%%%%....%%%%%%%%%..oooX.      ",
"    .XooOOO....%%%%%%%....%%%%%%%%%%%%....%%%%%%%%%..oooXX      ",
"    .XooOOO...%%%%%%%%....%%%%%%%%%%%%....%%%%%%%%%..ooo..      ",
"    .Xo......%%%%%%%%%....%%%%%%%%%%%%....%%%%%%%%%..oo..       ",
"    ....   ..%%%%%%%%%%%%%%%%%%%%%%%%%%%%%%%%%%%%%%.....        ",
"         ....%%%%%%%%%%%%%%%%%%%%%%%%%%%%%%%%%%%%%%......       ",
"       ......%%%%%%%%%%%%%%%%%%%%%%%%%%%%%%%%%%%%%%.......      ",
"      .......%%%%%%%%%%%%..............%%%%%%%%%%%%.......      ",
"     ....%%....%%%%%%%%%%..............%%%%%%%%%%....%%....     ",
"     ...%%%..@...%%%%%%%%%%%%%%%%%%%%%%%%%%%%%%...@..%%%...     ",
"     ..%%%%..@@@..%%%%%%%%%%%%%%%%%%%%%%%%%%%%..@@@..%%%%..     ",
"     ..%%%%..@@@@@....%%%%%%%%%%%%%%%%%%%%....@@@@@..%%%%..     ",
"     ...%%%..@@@@@@@@......................@@@@@@@@..%%%...     ",
"     ...%%%..@@@++++@@@@$$$@@@@@@@@@@$$$@@@@++++@@@..%%%...     ",
"      ...%%..@@@@+##+++$$$$$$######$$$$$$+++##+@@@@..%%...      ",
"      .......@@@@++####$$&&&&$$++$$&&&&$$####++@@@@.......      ",
"       ......@@@@@++###$$&&&&&$$$$&&&&&$$###++@@@@@......       ",
"           ..+@@@@@++###$$&&&&&&&&&&&&&$###++@@@@@+..           ",
"           ..+++@@@@+###$$$&&&&&&&&&&$$$###+@@@@+++..           ",
"           ..+++@@@@++####$&&&&&&&&&&$####++@@@@+++..           ",
"           ..++++@@@@++####$&&&&&&&&$####++@@@@++++..           ",
"           ..+++++@@@@+++###$&&&&&&$###+++@@@@+++++..           ",
"           ..+++++@@@@@+++++#$&&&&$#+++++@@@@@+++++..           ",
"           ..++++++@@@@++++++#$$$$#++++++@@@@++++++..           ",
"           ..........................................           ",
"           ..........................................           ",
"                                                                ",
"                                                                ",
"                                                                ",
"                                                                ",
"                                                                ",
"                                                                ",
"                                                                ",
"                                                                "
};
