/* XPM */
static char *result[] = {
/* columns rows colors chars-per-pixel */
"64 64 9 1 ",
"  c black",
". c #542E2D",
"X c #5B3233",
"o c #693937",
"O c #745F53",
"+ c #6F6D69",
"@ c #B92F27",
"# c #458B1D",
"$ c None",
/* pixels */
"$$$$$$$$$$$$$$$$$$$$$$$$$$$$$$$$$$$$$$$$$$$$$$$$$$$$$$$$$$$$$$$$",
"$$$$$$$$$$$$$$$$$$$$$$$$$$$$$$$$$$$$$$$$$$$$$$$$$$$$$$$$$$$$$$$$",
"$$$$$$$$$$$$$$$$$$$$$$$$$$$$$$$$$$$$$$$$$$$$$$$$$$$$$$$$$$$$$$$$",
"$$$$$$$$$$$$$$$$$$$$$$$$$$$$$$$$$$$$$$$$$$$$$$$$$$$$$$$$$$$$$$$$",
"$$$$$$$$$$$$$$$$$$$$$$$$$$$$$$$$$$$$$$$$$$$$$$$$$$$$$$$$$$$$$$$$",
"$$$$$$$$$$$$$$$$$$$$$$$$$$$$$$$$$$$$$$$$$$$$$$$$$$$$$$$$$$$$$$$$",
"$$$$$$$$$$$$$$$$$$$$$$$$$$$$$$$$$$$$$$$$$$$$$$$$$$$$$$$$$$$$$$$$",
"$$$$$$$$$$$$$$$$$$$$$$$$$$$$$$$$$$$$$$$$$$$$$$$$$$$$$$$$$$$$$$$$",
"$$$$$$$$$$$$$$$$$$$$$$$$$$$$$$$$$$$$$$$$$$$$$$$$$$$$$$$$$$$$$$$$",
"$$$$$$$$$$$$$$$$$$$$$$$$            $$$$$$$$$$$$$$$$$$$$$$$$$$$$",
"$$$$$$$$$$$$$$$$$$$$$    XXXX XXXXX  $$$$$$$$$$$$$$$$$$$$$$$$$$$",
"$$$$$$$$$$$$$$$$$$$$$ XXXXX   XXXXXX  $$$$$$$$$$$$$$$$$$$$$$$$$$",
"$$$$$$$$$$$$$$$       XXXX  XXXXX  XX          $$$$$$$$$$$$$$$$$",
"$$$$$$$$$$$$$$$ XXXXXXXXX  XX     XX             $$$$$$$$$$$$$$$",
"$$$$$$$$$$$$$$  X    XXXX XXX XXXXX   #######    $$$$$$$$$$$$$$$",
"$$$$$$$$$$$$$  XXXXXX XXX XXXXXXXX    #########  $$$$$$$$$$$$$$$",
"$$$$$$$$$$$$  XXXXXXXXXXXXXXXXX      @####o####    $$$$$$$$$$$$$",
"$$$$$$$$$$   XX    XXXXXXXXXX       @@####o####      $$$$$$$$$$$",
"$$$$$$$$$  XX   XXXXXXXX  XX     @@@@@####oo#####    $$$$$$$$$$$",
"$$$$$$$$$ XX  XXXXX  X   XXX   @@@@@@#####ooOO#####  $$$$$$$$$$$",
"$$$$$$$$$ XX XXXX XX   XXXX   @@@@@########ooO#####  $$$$$$$$$$$",
"$$$$$$$$$ XXXXXX  XXX XXXX    @@@###########oO#####  $$$$$$$$$$$",
"$$$$$$$$  XXX    XXX XXXX    @@@############oO#####  $$$$$$$$$$$",
"$$$$$$$$ XXXX XXXXXXXX      @@@@############oO#####  $$$$$$$$$$$",
"$$$$$$$$ XXXX XX          @@################oO#####  $$$$$$$$$$$",
"$$$$$$$$   XXXX        @@@##################oO#####  $$$$$$$$$$$",
"$$$$$$$$$$  X     @@@@@#####################oO#####  $$$$$$$$$$$",
"$$$$$$$$$$$      @@@@@@## ##### ######## ###oO ####  $$$$$$$$$$$",
"$$$$$$$$$$$   @@@@@####### ### ########## ##o #####  $$$$$$$$$$$",
"$$$$$$$$$$$  @@@@########## # ############ # O#####  $$$$$$$$$$$",
"$$$$$$$$$$$  @@@## ######### ############## oO#####     $$$$$$$$",
"$$$$$$$$$    #@@## ######## # ############ # O#####      $$$$$$$",
"$$$$$$$      ##@##   ##### ### ########## ##o #####  ##   $$$$$$",
"$$$$$$       ######   ### ##### ######## ###oO ####  ###   $$$$$",
"$$$$$    ##  ###### .  #####################oOo####  ###   $$$$$",
"$$$$$   ###  ######  .  ####################oOo####  ####  $$$$$",
"$$$$$  ####  ####### .. ####################oooo###  ####  $$$$$",
"$$$$$  ####  #######  .  ####################ooo###  ###   $$$$$",
"$$$$$   ###  ########  . ####################ooo###  ##   $$$$$$",
"$$$$$   ###  #########    ###################ooo###      $$$$$$$",
"$$$$$$   ##    ########   #######       #####ooo###     $$$$$$$$",
"$$$$$$          ########  ######         #####o####  $$$$$$$$$$$",
"$$$$$$$      X   ######## #####           #########  $$$$$$$$$$$",
"$$$$$$$$$$$  XX  #############             ###.####  $$$$$$$$$$$",
"$$$$$$$$$$$  XX  #######    ##             ###.  ##  $$$$$$$$$$$",
"$$$$$$$$$$$ XXX  ######  ++ ##@@@@@#########.#  .##  $$$$$$$$$$$",
"$$$$$$$$$$$ XX  ######  ++  ##@@@@@#########.  #.##  $$$$$$$$$$$",
"$$$$$$$$$$$ XX  #####  ++  ###@@@@##########  .####  $$$$$$$$$$$",
"$$$$$$$$$$$     ##### ++  ####@@@##########  #.####  $$$$$$$$$$$",
"$$$$$$$$$$$    ######    ######@###################  $$$$$$$$$$$",
"$$$$$$$$$$$  ######################################  $$$$$$$$$$$",
"$$$$$$$$$$$  ######################################  $$$$$$$$$$$",
"$$$$$$$$$$$  ######################################  $$$$$$$$$$$",
"$$$$$$$$$$$                                          $$$$$$$$$$$",
"$$$$$$$$$$$                                          $$$$$$$$$$$",
"$$$$$$$$$$$$$$$$$$$$$$$$$$$$$$$$$$$$$$$$$$$$$$$$$$$$$$$$$$$$$$$$",
"$$$$$$$$$$$$$$$$$$$$$$$$$$$$$$$$$$$$$$$$$$$$$$$$$$$$$$$$$$$$$$$$",
"$$$$$$$$$$$$$$$$$$$$$$$$$$$$$$$$$$$$$$$$$$$$$$$$$$$$$$$$$$$$$$$$",
"$$$$$$$$$$$$$$$$$$$$$$$$$$$$$$$$$$$$$$$$$$$$$$$$$$$$$$$$$$$$$$$$",
"$$$$$$$$$$$$$$$$$$$$$$$$$$$$$$$$$$$$$$$$$$$$$$$$$$$$$$$$$$$$$$$$",
"$$$$$$$$$$$$$$$$$$$$$$$$$$$$$$$$$$$$$$$$$$$$$$$$$$$$$$$$$$$$$$$$",
"$$$$$$$$$$$$$$$$$$$$$$$$$$$$$$$$$$$$$$$$$$$$$$$$$$$$$$$$$$$$$$$$",
"$$$$$$$$$$$$$$$$$$$$$$$$$$$$$$$$$$$$$$$$$$$$$$$$$$$$$$$$$$$$$$$$",
"$$$$$$$$$$$$$$$$$$$$$$$$$$$$$$$$$$$$$$$$$$$$$$$$$$$$$$$$$$$$$$$$"
};
