/* XPM */
static char *_e2e944e9d8f4ee1be636e0753a94821ICNH5jUaWuLaTTPW[] = {
/* columns rows colors chars-per-pixel */
"64 64 2 1 ",
"  c black",
". c #9F29C8",
/* pixels */
"                                                                ",
"                                                                ",
"  ............................................................  ",
"  ............................................................  ",
"  ............................................................  ",
"  ............................................................  ",
"  ............................................................  ",
"  ............................................................  ",
"  ............................................................  ",
"  ............................................................  ",
"  ............................................................  ",
"  ............................................................  ",
"  ............................................................  ",
"  ............................................................  ",
"  ............................................................  ",
"  ............................................................  ",
"  ............................................................  ",
"  ............................................................  ",
"  ............................................................  ",
"  ............................................................  ",
"  ............................................................  ",
"  ............................................................  ",
"  ............................................................  ",
"  ............................................................  ",
"  ............................................................  ",
"  ............................................................  ",
"  ............................................................  ",
"  ............................................................  ",
"  ............................................................  ",
"  ............................................................  ",
"  ............................................................  ",
"  ............................................................  ",
"  ............................................................  ",
"  ............................................................  ",
"  ............................................................  ",
"  ............................................................  ",
"  ............................................................  ",
"  ............................................................  ",
"  ............................................................  ",
"  ............................................................  ",
"  ............................................................  ",
"  ............................................................  ",
"  ............................................................  ",
"  ............................................................  ",
"  ............................................................  ",
"  ............................................................  ",
"  ............................................................  ",
"  ............................................................  ",
"  ............................................................  ",
"  ............................................................  ",
"  ............................................................  ",
"  ............................................................  ",
"  ............................................................  ",
"  ............................................................  ",
"  ............................................................  ",
"  ............................................................  ",
"  ............................................................  ",
"  ............................................................  ",
"  ............................................................  ",
"  ............................................................  ",
"  ............................................................  ",
"  ............................................................  ",
"                                                                ",
"                                                                "
};
