/* XPM */
static char *_407521d94d0444aee8b30454ecb157b1lzgXhFpKdMkGvh9[] = {
/* columns rows colors chars-per-pixel */
"64 64 8 1 ",
"  c None",
". c black",
"X c #27282D",
"o c #4A4F04",
"O c #0B1F5A",
"+ c #676060",
"@ c #908989",
"# c #C39885",
/* pixels */
"                                                                ",
"                                                                ",
"                                                                ",
"                                                                ",
"                                                                ",
"                                                                ",
"                  ............................                  ",
"                ................................                ",
"              .....OOOOOOOOOOOOOOOOOOOOOOOOOO.....              ",
"            ......OOOOOOOOOOOOOOOOOOOOOOOOOOOO......            ",
"            ....OOOOOOOOOOOOOOOOOOOOOOOOOOOOOOOO....            ",
"           ....OOOOOOOOOOOOOOOOOOOOOOOOOOOOOOOOOO....           ",
"          ....OOOOOOOOOOOOOOOOOOOOOOOOOOOOOOOOOOOO....          ",
"          ...OOOOOOOOOOOOOOOOOOOOOOOOOOOOOOOOOOOOOO...          ",
"         ...OOOOOOOOOOOOOOOOOOOOOOOOOOOOOOOOOOOOOOOO...         ",
"        ...OOOOOOOOOOOOOOOOOOOOOOOOOOOOOOOOOOOOOOOOOO...        ",
"        ..OOOOOOOOOOOOOOOOOOOOOOOOOOOOOOOOOOOOOOOOOOOO..        ",
"       ...OOO......................................OOO...       ",
"       ...OOO......................................OOO...       ",
"       ..OO..........................................OO..       ",
"      ...OO..........................................OO...      ",
"      ...OO..........................................OO...      ",
"      ..OOO....#####....################....#####....OOO..      ",
"      ..OOO...#######.....############.....#######...OOO..      ",
"      ..OOO..###########....########....###########..OOO..      ",
"     ........############....######....############........     ",
"     ........#############...######...#############........     ",
"         ....######################################....         ",
"         ...................########...................         ",
"           ..####.............####.............####..           ",
"           ..####...........##....##...........####..           ",
"           ..####...........########...........####..           ",
"           ..#####.........##########.........#####..           ",
"           ..######.......############.......######..           ",
"           ..######################################..           ",
"           ..........................................           ",
"    .      ..OOOOOOOOOOOOOOOOOOOOOOOOOOOOOOOOOOOOOO....         ",
"    ............OOOOOOOOOOOOOOOOOOOOOOOOOOOOOOOOOOO......       ",
"    .+.@@@@@.++..OOOOOOOOOOOOOOOOOOOOOOOOOOOOOOOOO........      ",
"    .+.......+++.OOOOOOOOOOOOOOOOOOOOOOOOOOOOOOOO....##....     ",
"    .+++++++++...OOOO......................OOOOO..X..###...     ",
"    ........++.X.OOOO.ooooOoOoOoOooooOoooO.OOOO..XX..####..     ",
"          ..++.X..OOO.oOOOOoOoOoOoOOoOOoOO.OOO..XXX..####..     ",
"          ..++..X...O.ooooOoOoOoOoOOoOOoOO.O...XXXX..###...     ",
"           .+++.XXX.O.OOOoOoOoOoOooooOOoOO.O.XXXXXX..###...     ",
"           .....XXX.O.ooooOoooooOoOOoOOoOO.O.XXXXXX..##...      ",
"           ..XXXXXX.O......................O.XXXXXX.......      ",
"           ..XXXXXX.OOOOOOOOOOOOOOOOOOOOOOOO.XXXXXX......       ",
"           ..XXXXXX.O...O...O..OO..O...O...O.XXXXXX..           ",
"           ..XXXXXX.O...O...O..OO..O...O...O.XXXXXX..           ",
"           ..XXXXXX.O...O...O..OO..O...O...O.XXXXXX..           ",
"           ..XXXXXX.O...O...O..OO..O...O...O.XXXXXX..           ",
"           ..XXXXXX.O...O...O..OO..O...O...O.XXXXXX..           ",
"           ..XXXXXX.OOOOOOOOOOOOOOOOOOOOOOOO.XXXXXX..           ",
"           ..XXXXXX.OOOOOOOOOOOOOOOOOOOOOOOO.XXXXXX..           ",
"           ..........................................           ",
"           ..........................................           ",
"                                                                ",
"                                                                ",
"                                                                ",
"                                                                ",
"                                                                ",
"                                                                ",
"                                                                "
};
