/* XPM */
static char *_2c6dfc790ce4e7eda2931e4b18a5a90MvscL10hS7lfKtE4[] = {
/* columns rows colors chars-per-pixel */
"64 64 8 1 ",
"  c None",
". c black",
"X c #27282D",
"o c #4A4F04",
"O c #0B1F5A",
"+ c #676060",
"@ c #908989",
"# c #C39885",
/* pixels */
"                                                                ",
"                                                                ",
"                                                                ",
"                                                                ",
"                                                                ",
"                                                                ",
"                 ............................                   ",
"               ................................                 ",
"             .....OOOOOOOOOOOOOOOOOOOOOOOOOO.....               ",
"           ......OOOOOOOOOOOOOOOOOOOOOOOOOOOO......             ",
"           ....OOOOOOOOOOOOOOOOOOOOOOOOOOOOOOOO....             ",
"          ....OOOOOOOOOOOOOOOOOOOOOOOOOOOOOOOOOO....            ",
"         ....OOOOOOOOOOOOOOOOOOOOOOOOOOOOOOOOOOOO....           ",
"         ...OOOOOOOOOOOOOOOOOOOOOOOOOOOOOOOOOOOOOO...           ",
"        ...OOOOOOOOOOOOOOOOOOOOOOOOOOOOOOOOOOOOOOOO...          ",
"       ...OOOOOOOOOOOOOOOOOOOOOOOOOOOOOOOOOOOOOOOOOO...         ",
"       ..OOOOOOOOOOOOOOOOOOOOOOOOOOOOOOOOOOOOOOOOOOOO..         ",
"      ...OOO......................................OOO...        ",
"      ...OOO......................................OOO...        ",
"      ..OO..........................................OO..        ",
"     ...OO..........................................OO...       ",
"     ...OO..........................................OO...       ",
"     ..OOO....#####....################....#####....OOO..       ",
"     ..OOO...#######.....############.....#######...OOO..       ",
"     ..OOO..###########....########....###########..OOO..       ",
"    ........############....######....############........      ",
"    ........#############...######...#############........      ",
"        ....######################################....          ",
"        ...................########...................          ",
"          ..####.............####.............####..            ",
"          ..####...........##....##...........####..            ",
"          ..####...........########...........####..            ",
"          ..#####.........##########.........#####..            ",
"          ..######.......############.......######..            ",
"          ..######################################..            ",
"          ..........................................            ",
"        ....OOOOOOOOOOOOOOOOOOOOOOOOOOOOOOOOOOOOOO..      .     ",
"      ......OOOOOOOOOOOOOOOOOOOOOOOOOOOOOOOOOOO............     ",
"     ........OOOOOOOOOOOOOOOOOOOOOOOOOOOOOOOOO..++.@@@@@.+.     ",
"    ....##....OOOOOOOOOOOOOOOOOOOOOOOOOOOOOOOO.+++.......+.     ",
"    ...###..X..OOOOO......................OOOO...+++++++++.     ",
"    ..####..XX..OOOO.ooooOoOoOoOooooOoooO.OOOO.X.++........     ",
"    ..####..XXX..OOO.oOOOOoOoOoOoOOoOOoOO.OOO..X.++..           ",
"    ...###..XXXX...O.ooooOoOoOoOoOOoOOoOO.O...X..++..           ",
"    ...###..XXXXXX.O.OOOoOoOoOoOooooOOoOO.O.XXX.+++.            ",
"     ...##..XXXXXX.O.ooooOoooooOoOOoOOoOO.O.XXX.....            ",
"     .......XXXXXX.O......................O.XXXXXX..            ",
"      ......XXXXXX.OOOOOOOOOOOOOOOOOOOOOOOO.XXXXXX..            ",
"          ..XXXXXX.O...O...O..OO..O...O...O.XXXXXX..            ",
"          ..XXXXXX.O...O...O..OO..O...O...O.XXXXXX..            ",
"          ..XXXXXX.O...O...O..OO..O...O...O.XXXXXX..            ",
"          ..XXXXXX.O...O...O..OO..O...O...O.XXXXXX..            ",
"          ..XXXXXX.O...O...O..OO..O...O...O.XXXXXX..            ",
"          ..XXXXXX.OOOOOOOOOOOOOOOOOOOOOOOO.XXXXXX..            ",
"          ..XXXXXX.OOOOOOOOOOOOOOOOOOOOOOOO.XXXXXX..            ",
"          ..........................................            ",
"          ..........................................            ",
"                                                                ",
"                                                                ",
"                                                                ",
"                                                                ",
"                                                                ",
"                                                                ",
"                                                                "
};
