/* XPM */
static char *f62e40b90c3d4ce3f6c0f125d8499be9Ztq7aG4z1DTVy2lL[] = {
/* columns rows colors chars-per-pixel */
"64 64 11 1 ",
"  c None",
". c black",
"X c #542E2D",
"o c #5B3233",
"O c #693937",
"+ c #745F53",
"@ c #6F6D69",
"# c #B92F27",
"$ c #458B1D",
"% c #919291",
"& c #EEECEF",
/* pixels */
"                                                                ",
"                                                                ",
"                                                                ",
"                                                                ",
"                                                                ",
"                                                                ",
"                                                                ",
"                                                                ",
"                                                                ",
"                        ............                            ",
"                     ....oooo.ooooo..                           ",
"                     .ooooo...oooooo..                          ",
"               .......oooo..ooooo..oo..........                 ",
"               .ooooooooo..oo.....oo.............               ",
"              ..o....oooo.ooo.ooooo...$$$$$$$....               ",
"             ..oooooo.ooo.oooooooo....$$$$$$$$$..               ",
"            ..ooooooooooooooooo......#$$$$O$$$$....             ",
"          ...oo....oooooooooo.......##$$$$O$$$$......           ",
"         ..oo...oooooooo..oo.....#####$$$$OO$$$$$....           ",
"         .oo..ooooo..o...ooo...######$$$$$OO++$$$$$..           ",
"         .oo.oooo.oo...oooo...#####$$$$$$$$OO+$$$$$..           ",
"         .oooooo..ooo.oooo....###$$$$$$$$$$$O+$$$$$..           ",
"        ..ooo....ooo.oooo....###$$$$$$$$$$$$O+$$$$$..           ",
"        .oooo.oooooooo......####$$$$$$$$$$$$O+$$$$$..           ",
"        .oooo.oo..........##$$$$$$$$$$$$$$$$O+$$$$$..           ",
"        ...oooo........###$$$$$$$$$$$$$$$$$$O+$$$$$..           ",
"          ..o.....#####$$$$$$$$$$$$$$$$$$$$$O+$$$$$..           ",
"           ......######............$$$............$..           ",
"           ...#####$$$$.&&&&&&&&&&.$$$.&&&&&&&&&&.$..           ",
"           ..####$$$$$$.&&&&&&&&&&.$$$.&&&&&&&&&&.$..           ",
"         ....###$$.$$$$..%&&&&&&&%.$$$..%&&&&&&&%.$.....        ",
"       ......$##$$.$$$$$..%%&&&%%..$$$$..%%&&&%%..$......       ",
"      .......$$#$$...$$$$..%%%%%..$$$$$$..%%%%%..$$..$$...      ",
"     ....$$..$$$$$$...$$$$.......$$$$$$$$.......$$$..$$$...     ",
"     ...$$$..$$$$$$.X..$$$$$$$$$$$$$$$$$$$$$++O$$$$..$$$...     ",
"     ..$$$$..$$$$$$..X..$$$$$$$$$$$$$$$$$$$$++O$$$$..$$$$..     ",
"     ..$$$$..$$$$$$$.XX.$$$$$$$$$$$$$$$$$$$$$+OO$$$..$$$$..     ",
"     ...$$$..$$$$$$$..X..$$$$$$$$$$$$$$$$$$$$+OO$$$..$$$...     ",
"     ...$$$..$$$$$$$$..X.$$$$$$$$$$$$$$$$$$$$OOO$$$..$$...      ",
"      ...$$..$$$$$$$$$....$$$$$$$$$$$$$$$$$$$OOO$$$......       ",
"      .........$$$$$$$$...$$$$...$$$$$$$...$$OOO$$$.....        ",
"       .........$$$$$$$$..$$$$.............$$$O$$$$..           ",
"           ..o...$$$$$$$$.$$$$.............$$$$$$$$..           ",
"           ..oo..$$$$$$$$$$$$$#...........$$$$X$$$$..           ",
"           ..oo..$$$$$$$....$$##.........$$$$$X..$$..           ",
"           .ooo..$$$$$$..@@.$$####......$$$$X$..X$$..           ",
"           .oo..$$$$$$..@@..$$#####$$$$$$$$$X..$X$$..           ",
"           .oo..$$$$$..@@..$$$####$$$$$$$$$$..X$$$$..           ",
"           .....$$$$$.@@..$$$$###$$$$$$$$$$..$X$$$$..           ",
"           ....$$$$$$....$$$$$$#$$$$$$$$$$$$$$$$$$$..           ",
"           ..$$$$$$$$$$$$$$$$$$$$$$$$$$$$$$$$$$$$$$..           ",
"           ..$$$$$$$$$$$$$$$$$$$$$$$$$$$$$$$$$$$$$$..           ",
"           ..$$$$$$$$$$$$$$$$$$$$$$$$$$$$$$$$$$$$$$..           ",
"           ..........................................           ",
"           ..........................................           ",
"                                                                ",
"                                                                ",
"                                                                ",
"                                                                ",
"                                                                ",
"                                                                ",
"                                                                ",
"                                                                ",
"                                                                "
};
