/* XPM */
static char *_8f47707259b4c73d0cc3c7f66721df7Kw75iuiiggy8rpXE[] = {
/* columns rows colors chars-per-pixel */
"64 64 11 1 ",
"  c None",
". c black",
"X c #542E2D",
"o c #5B3233",
"O c #693937",
"+ c #745F53",
"@ c #6F6D69",
"# c #B92F27",
"$ c #458B1D",
"% c #919291",
"& c #EEECEF",
/* pixels */
"                                                                ",
"                                                                ",
"                                                                ",
"                                                                ",
"                                                                ",
"                                                                ",
"                                                                ",
"                                                                ",
"                                                                ",
"                            ............                        ",
"                           ..ooooo.oooo....                     ",
"                          ..oooooo...ooooo.                     ",
"                 ..........oo..ooooo..oooo.......               ",
"               .............oo.....oo..ooooooooo.               ",
"               ....$$$$$$$...ooooo.ooo.oooo....o..              ",
"               ..$$$$$$$$$....oooooooo.ooo.oooooo..             ",
"             ....$$$$O$$$$#......ooooooooooooooooo..            ",
"           ......$$$$O$$$$##.......oooooooooo....oo...          ",
"           ....$$$$$OO$$$$#####.....oo..oooooooo...oo..         ",
"           ..$$$$$++OO$$$$$######...ooo...o..ooooo..oo.         ",
"           ..$$$$$+OO$$$$$$$$#####...oooo...oo.oooo.oo.         ",
"           ..$$$$$+O$$$$$$$$$$$###....oooo.ooo..oooooo.         ",
"           ..$$$$$+O$$$$$$$$$$$$###....oooo.ooo....ooo..        ",
"           ..$$$$$+O$$$$$$$$$$$$####......oooooooo.oooo.        ",
"           ..$$$$$+O$$$$$$$$$$$$$$$$##..........oo.oooo.        ",
"           ..$$$$$+O$$$$$$$$$$$$$$$$$$###........oooo...        ",
"           ..$$$$$+O$$$$$$$$$$$$$$$$$$$$$#####.....o..          ",
"           ..$............$$$............######......           ",
"           ..$.&&&&&&&&&&.$$$.&&&&&&&&&&.$$$$#####...           ",
"           ..$.&&&&&&&&&&.$$$.&&&&&&&&&&.$$$$$$####..           ",
"        .....$.%&&&&&&&%..$$$.%&&&&&&&%..$$$$.$$###....         ",
"       ......$..%%&&&%%..$$$$..%%&&&%%..$$$$$.$$##$......       ",
"      ...$$..$$..%%%%%..$$$$$$..%%%%%..$$$$...$$#$$.......      ",
"     ...$$$..$$$.......$$$$$$$$.......$$$$...$$$$$$..$$....     ",
"     ...$$$..$$$$O++$$$$$$$$$$$$$$$$$$$$$..X.$$$$$$..$$$...     ",
"     ..$$$$..$$$$O++$$$$$$$$$$$$$$$$$$$$..X..$$$$$$..$$$$..     ",
"     ..$$$$..$$$OO+$$$$$$$$$$$$$$$$$$$$$.XX.$$$$$$$..$$$$..     ",
"     ...$$$..$$$OO+$$$$$$$$$$$$$$$$$$$$..X..$$$$$$$..$$$...     ",
"      ...$$..$$$OOO$$$$$$$$$$$$$$$$$$$$.X..$$$$$$$$..$$$...     ",
"       ......$$$OOO$$$$$$$$$$$$$$$$$$$....$$$$$$$$$..$$...      ",
"        .....$$$OOO$$...$$$$$$$...$$$$...$$$$$$$$.........      ",
"           ..$$$$O$$$.............$$$$..$$$$$$$$.........       ",
"           ..$$$$$$$$.............$$$$.$$$$$$$$...o..           ",
"           ..$$$$X$$$$...........#$$$$$$$$$$$$$..oo..           ",
"           ..$$..X$$$$$.........##$$....$$$$$$$..oo..           ",
"           ..$$X..$X$$$$......####$$.@@..$$$$$$..ooo.           ",
"           ..$$X$..X$$$$$$$$$#####$$..@@..$$$$$$..oo.           ",
"           ..$$$$X..$$$$$$$$$$####$$$..@@..$$$$$..oo.           ",
"           ..$$$$X$..$$$$$$$$$$###$$$$..@@.$$$$$.....           ",
"           ..$$$$$$$$$$$$$$$$$$$#$$$$$$....$$$$$$....           ",
"           ..$$$$$$$$$$$$$$$$$$$$$$$$$$$$$$$$$$$$$$..           ",
"           ..$$$$$$$$$$$$$$$$$$$$$$$$$$$$$$$$$$$$$$..           ",
"           ..$$$$$$$$$$$$$$$$$$$$$$$$$$$$$$$$$$$$$$..           ",
"           ..........................................           ",
"           ..........................................           ",
"                                                                ",
"                                                                ",
"                                                                ",
"                                                                ",
"                                                                ",
"                                                                ",
"                                                                ",
"                                                                ",
"                                                                "
};
