/* XPM */
static char *result[] = {
/* columns rows colors chars-per-pixel */
"64 64 11 1 ",
"  c black",
". c #542E2D",
"X c #5B3233",
"o c #693937",
"O c #745F53",
"+ c #6F6D69",
"@ c #B92F27",
"# c #458B1D",
"$ c #919291",
"% c #EEECEF",
"& c None",
/* pixels */
"&&&&&&&&&&&&&&&&&&&&&&&&&&&&&&&&&&&&&&&&&&&&&&&&&&&&&&&&&&&&&&&&",
"&&&&&&&&&&&&&&&&&&&&&&&&&&&&&&&&&&&&&&&&&&&&&&&&&&&&&&&&&&&&&&&&",
"&&&&&&&&&&&&&&&&&&&&&&&&&&&&&&&&&&&&&&&&&&&&&&&&&&&&&&&&&&&&&&&&",
"&&&&&&&&&&&&&&&&&&&&&&&&&&&&&&&&&&&&&&&&&&&&&&&&&&&&&&&&&&&&&&&&",
"&&&&&&&&&&&&&&&&&&&&&&&&&&&&&&&&&&&&&&&&&&&&&&&&&&&&&&&&&&&&&&&&",
"&&&&&&&&&&&&&&&&&&&&&&&&&&&&&&&&&&&&&&&&&&&&&&&&&&&&&&&&&&&&&&&&",
"&&&&&&&&&&&&&&&&&&&&&&&&&&&&&&&&&&&&&&&&&&&&&&&&&&&&&&&&&&&&&&&&",
"&&&&&&&&&&&&&&&&&&&&&&&&&&&&&&&&&&&&&&&&&&&&&&&&&&&&&&&&&&&&&&&&",
"&&&&&&&&&&&&&&&&&&&&&&&&&&&&&&&&&&&&&&&&&&&&&&&&&&&&&&&&&&&&&&&&",
"&&&&&&&&&&&&&&&&&&&&&&&&&&&&            &&&&&&&&&&&&&&&&&&&&&&&&",
"&&&&&&&&&&&&&&&&&&&&&&&&&&&  XXXXX XXXX    &&&&&&&&&&&&&&&&&&&&&",
"&&&&&&&&&&&&&&&&&&&&&&&&&&  XXXXXX   XXXXX &&&&&&&&&&&&&&&&&&&&&",
"&&&&&&&&&&&&&&&&&          XX  XXXXX  XXXX       &&&&&&&&&&&&&&&",
"&&&&&&&&&&&&&&&             XX     XX  XXXXXXXXX &&&&&&&&&&&&&&&",
"&&&&&&&&&&&&&&&    #######   XXXXX XXX XXXX    X  &&&&&&&&&&&&&&",
"&&&&&&&&&&&&&&&  #########    XXXXXXXX XXX XXXXXX  &&&&&&&&&&&&&",
"&&&&&&&&&&&&&    ####o####@      XXXXXXXXXXXXXXXXX  &&&&&&&&&&&&",
"&&&&&&&&&&&      ####o####@@       XXXXXXXXXX    XX   &&&&&&&&&&",
"&&&&&&&&&&&    #####oo####@@@@@     XX  XXXXXXXX   XX  &&&&&&&&&",
"&&&&&&&&&&&  #####OOoo#####@@@@@@   XXX   X  XXXXX  XX &&&&&&&&&",
"&&&&&&&&&&&  #####Ooo########@@@@@   XXXX   XX XXXX XX &&&&&&&&&",
"&&&&&&&&&&&  #####Oo###########@@@    XXXX XXX  XXXXXX &&&&&&&&&",
"&&&&&&&&&&&  #####Oo############@@@    XXXX XXX    XXX  &&&&&&&&",
"&&&&&&&&&&&  #####Oo############@@@@      XXXXXXXX XXXX &&&&&&&&",
"&&&&&&&&&&&  #####Oo################@@          XX XXXX &&&&&&&&",
"&&&&&&&&&&&  #####Oo##################@@@        XXXX   &&&&&&&&",
"&&&&&&&&&&&  #####Oo#####################@@@@@     X  &&&&&&&&&&",
"&&&&&&&&&&&  #            ###            @@@@@@      &&&&&&&&&&&",
"&&&&&&&&&&&  # %%%%%%%%%% ### %%%%%%%%%% ####@@@@@   &&&&&&&&&&&",
"&&&&&&&&&&&  # %%%%%%%%%% ### %%%%%%%%%% ######@@@@  &&&&&&&&&&&",
"&&&&&&&&&&&  # $%%%%%%%$  ### $%%%%%%%$  #### ##@@@  &&&&&&&&&&&",
"&&&&&&&&&&&  #  $$%%%$$  ####  $$%%%$$  ##### ##@@#  &&&&&&&&&&&",
"&&&&&&&&&&&  ##  $$$$$  ######  $$$$$  ####   ##@##  &&&&&&&&&&&",
"&&&&&&&&&&&  ###       ########       ####   ######  &&&&&&&&&&&",
"&&&&&&&      ####oOO#####################  . ######    &&&&&&&&&",
"&&&&&&       ####oOO####################  .  ######      &&&&&&&",
"&&&&&&   ##  ###ooO##################### .. #######       &&&&&&",
"&&&&&   ###  ###ooO####################  .  #######  ##    &&&&&",
"&&&&&   ###  ###ooo#################### .  ########  ###   &&&&&",
"&&&&&  ####  ###ooo###################    #########  ####  &&&&&",
"&&&&&  ####  ###ooo##   #######   ####   ########    ####  &&&&&",
"&&&&&   ###  ####o###             ####  ########     ###   &&&&&",
"&&&&&    ##  ########             #### ########   X  ###   &&&&&",
"&&&&&&       ####.####           ##############  XX  ##   &&&&&&",
"&&&&&&&      ##  .#####         ####    #######  XX       &&&&&&",
"&&&&&&&&&    ##.  #.####      ###### ++  ######  XXX     &&&&&&&",
"&&&&&&&&&&&  ##.#  .################  ++  ######  XX &&&&&&&&&&&",
"&&&&&&&&&&&  ####.  #################  ++  #####  XX &&&&&&&&&&&",
"&&&&&&&&&&&  ####.#  #################  ++ #####     &&&&&&&&&&&",
"&&&&&&&&&&&  ##########################    ######    &&&&&&&&&&&",
"&&&&&&&&&&&  ######################################  &&&&&&&&&&&",
"&&&&&&&&&&&  ######################################  &&&&&&&&&&&",
"&&&&&&&&&&&  ######################################  &&&&&&&&&&&",
"&&&&&&&&&&&                                          &&&&&&&&&&&",
"&&&&&&&&&&&                                          &&&&&&&&&&&",
"&&&&&&&&&&&&&&&&&&&&&&&&&&&&&&&&&&&&&&&&&&&&&&&&&&&&&&&&&&&&&&&&",
"&&&&&&&&&&&&&&&&&&&&&&&&&&&&&&&&&&&&&&&&&&&&&&&&&&&&&&&&&&&&&&&&",
"&&&&&&&&&&&&&&&&&&&&&&&&&&&&&&&&&&&&&&&&&&&&&&&&&&&&&&&&&&&&&&&&",
"&&&&&&&&&&&&&&&&&&&&&&&&&&&&&&&&&&&&&&&&&&&&&&&&&&&&&&&&&&&&&&&&",
"&&&&&&&&&&&&&&&&&&&&&&&&&&&&&&&&&&&&&&&&&&&&&&&&&&&&&&&&&&&&&&&&",
"&&&&&&&&&&&&&&&&&&&&&&&&&&&&&&&&&&&&&&&&&&&&&&&&&&&&&&&&&&&&&&&&",
"&&&&&&&&&&&&&&&&&&&&&&&&&&&&&&&&&&&&&&&&&&&&&&&&&&&&&&&&&&&&&&&&",
"&&&&&&&&&&&&&&&&&&&&&&&&&&&&&&&&&&&&&&&&&&&&&&&&&&&&&&&&&&&&&&&&",
"&&&&&&&&&&&&&&&&&&&&&&&&&&&&&&&&&&&&&&&&&&&&&&&&&&&&&&&&&&&&&&&&"
};
